<?xml version="1.0" encoding="UTF-8"?>
<svg xmlns="http://www.w3.org/2000/svg" viewBox="0 0 827 827" width="827" height="827">
<path d="M0.25 0.25C275.75 0.25 551.25 0.25 826.75 0.25C826.75 275.75 826.75 551.25 826.75 826.75C551.25 826.75 275.75 826.75 0.25 826.75C0.25 551.25 0.25 275.75 0.25 0.25ZM115.91 186.14C110.4 181.02 115.06 147.24 91.83 153.66C88.84 154.36 85.85 155.05 82.85 155.74C66.12 162.75 68.84 187.47 83.23 195.3C88.64 198.24 98.31 196.75 102.34 200.62C87.47 221.11 71.85 239.31 61.17 262.67C31.76 327.03 32.45 439.18 112.64 466.82C127.52 471.95 144.1 472.05 159.51 469.76C193 464.78 235.76 444.03 255.69 485.79C264.9 505.1 253.69 529.82 249.17 549.5C238.61 595.53 227.05 641.35 216.71 687.43C210.49 715.13 210.98 744.46 234.43 764.06C259.56 785.08 301.98 776.9 317.53 748.02C328.07 728.42 334.03 674 338.97 649.51C342.98 629.58 347.46 609.09 370 602.82C379.78 600.1 390.44 600.12 400.48 598.79C420.54 596.12 440.25 591.7 459.24 584.69C465.06 582.55 493.6 565.95 496.37 566.29C498.34 566.53 501.26 591.31 503.03 596.49C508.52 612.54 522.61 626.44 538.66 631.78C568.15 641.6 600.57 632.93 627.83 620.37C688.21 592.58 737.17 539.78 763.78 479.28C798.45 400.42 792.84 300.27 745.43 228.09C733.34 209.68 718.14 193.37 701.93 178.54C698.18 175.1 680.92 163.33 679.71 159.99C679.42 159.2 693.22 135.46 694.85 132.35C708.77 105.77 723.46 78.71 732.5 49.98C735.67 39.91 740.15 23.97 730.45 16.03C717.84 5.7 699.68 20.66 689.85 28.39C666.56 46.72 645.77 68.47 625.88 90.36C622.69 93.87 606.47 114.04 603.48 114.43C596.56 115.34 569.85 101.86 561.4 99.18C530.78 89.45 499.39 82.83 467.46 79.32C363.28 67.84 252.25 89.44 164.13 147.54C146.7 159.03 131.65 172.64 115.91 186.14ZM118.56 81.26C111.81 83.23 110.96 96.38 120.42 95.66C130.17 94.91 127.56 78.63 118.56 81.26ZM441 85.63C444.23 90.21 445.63 86.09 449.47 87.03C454.36 88.22 453.97 95.53 461.5 88C461.5 90.37 468.24 99.2 470.47 95.97C471.74 94.12 469.67 93.07 470 91.5C475.8 91.5 478.79 98.56 482.5 95C479.67 92.88 476.83 90.76 474 88.65C481.28 89.7 488.56 90.75 495.83 91.8C500.69 96.35 495.62 101.44 489.5 100.63C475.94 98.82 460.84 98.53 447.5 96C448.21 95.29 452.69 93.48 449.97 91.53C444.47 87.6 446.34 95.44 444.47 95.97C441.36 96.85 427.3 96.36 424.72 94.78C424.01 94.35 424.18 92.56 423.5 92.44C423.5 92.44 421.25 94.81 420.47 94.97C414.36 96.24 405.09 95.8 399.47 95.89C378.66 96.22 358.3 96.77 336.5 101.13C329.62 102.5 322.73 104.93 316.5 105C310.97 105.06 276.15 113.57 278 119.5C281.78 119.04 280.44 117.91 285.5 119C285.13 117.98 283.08 117.52 283.44 116.5C284.1 114.58 292.11 114.98 292.78 117.66C293.28 119.64 291.18 124.08 289.47 124.59C288.42 124.91 287.72 121.99 287 121.56C286.46 121.24 286.54 121.38 286 121.56C281.68 123.03 285.24 128.75 289 127.5C286.92 134.51 281.32 128.86 278.19 126.31C275.74 124.33 275.86 116.54 274.47 116.15C271.7 115.38 263.89 120.22 261 121.08C242.41 126.59 225.7 135.58 208.54 142.92C195.37 148.55 181.79 158.67 170.5 166.92C168.46 168.42 160.5 170.59 159.9 173.54C159.15 177.25 167.05 180.11 169.15 183.03C170.21 184.5 173.85 191.62 170.09 190C162.77 167.73 132.26 182.81 145.21 202.91C140.95 204.77 141.59 194.74 138.08 193.56C134.46 192.35 132.86 198.98 129.5 198C130.5 195.65 131.5 193.31 132.5 190.96C130.83 192.64 129.17 194.32 127.5 196C127.21 193.24 126.92 190.48 126.63 187.72C129.13 185.47 131.63 183.23 134.13 180.98C142.46 183.29 149.24 179.54 148.22 169.72C157 157.69 192.36 140.11 206.42 132.72C271.19 98.7 368.1 76.66 441 85.63ZM191.67 90.41C188.57 91.25 191.27 93.9 189.6 96.09C187.82 98.41 185.55 95.9 183.76 97.04C177.62 100.95 188.64 109.38 192.5 109.29C205.44 108.99 203.12 87.3 191.67 90.41ZM139.66 102.32C120.31 106.76 125.11 123.82 125.26 138C125.3 141.16 123.8 155.65 128.57 156.3C130.81 156.61 135.08 146.01 137.72 144.23C145.68 138.83 155.99 142.94 162.34 133.8C173.54 117.67 157.58 98.21 139.66 102.32ZM257 134.5C263.9 137.95 257.71 137.47 255 139.5C256.67 141.83 258.33 144.17 260 146.5C255.01 145.65 243.27 143.51 251 137.5C246.01 133.62 246.91 139.96 243.47 140.59C241.89 140.89 240.76 136.48 239 137.56C235.89 139.48 240.64 143.62 235 145.5C235 132.49 240.06 134.01 249 130.5C251.44 129.54 251.04 124.96 255.5 125.38C258.02 125.61 260.22 129.64 262.5 129.94C269.29 130.81 275.05 120.26 279.78 129.72C280.91 131.98 279.48 133.6 278.69 135.19C272.73 147.1 265.36 132.91 257 134.5ZM97.63 127.36C90.33 129.17 90.75 141.93 100.46 139.89C108.31 138.25 105.13 125.5 97.63 127.36ZM327.18 198C320.08 180.49 308.93 164.02 289.19 159.41C283.46 158.07 277.55 158.17 271.88 156.56C249.93 150.35 229.94 144.21 210.07 160.56C188.24 178.51 198.54 188.79 189.72 207.22C186.16 214.65 176.61 220.56 171.72 227.66C170.83 228.44 169.94 229.21 169.05 229.99C160.03 232.54 151.02 235.1 142 237.65C118.17 242.15 95.05 262.41 85.99 285C82.59 293.48 84.48 307.86 79.5 314.48C78.63 311.69 77.76 308.89 76.89 306.09C77.62 298.81 78.79 301.77 80.81 297.31C82.67 293.22 82.53 288.02 84.19 283.69C90.98 265.87 110.27 249.16 125.53 239.47C133.86 234.18 154.18 234.69 163.31 230.46C165.71 229.35 179.41 216.02 182.55 213.07C190.68 205.42 187.76 202.65 189.22 193.69C191.92 177.11 205.55 153.21 224 149.79C252.51 144.5 252.36 150.74 276.53 155.84C300.25 160.85 311.26 163.85 323.2 185.5C325.68 189.99 328.65 194.22 329 199.5C328.39 199 327.79 198.5 327.18 198ZM88.66 159.39C97.28 158.47 83.18 173.22 80.71 171.87C74.56 168.51 85.1 159.77 88.66 159.39ZM235.7 163.5C232.91 165.43 214.08 180.19 213.81 180.3C212.79 180.73 210.89 180.39 210.38 179.26C206.72 171.06 228.16 158.3 235.7 163.5ZM448.6 221.89C448.14 220.92 447.68 219.95 447.23 218.97C451.19 217.55 471.36 208.29 471.54 212.52C471.78 218.57 452.45 221.59 448.6 221.89ZM96.94 220.13C98.03 218.75 99.11 217.38 100.2 216C101.6 217.15 109.53 215.03 111.5 214C111.5 216.13 104.67 225.1 103.5 224.94C100.28 224.48 99.04 222.14 96.94 220.13ZM55.64 215.45C52.19 216.33 56.05 220.03 53.15 221.69C50.48 223.22 49.84 218.88 47.98 220.39C42.08 225.19 51.55 233.83 56.45 233.63C68.76 233.13 66.09 212.76 55.64 215.45ZM76.63 250.69C78.76 247.14 80.88 243.59 83 240.04C84.83 240.02 86.67 240.01 88.5 240C88.43 239.33 87.11 237.01 87.25 236.69C88.16 234.52 92.69 234.36 93.97 233.47C94.27 233.26 99.6 218.13 101.47 226.97C102.2 230.45 96.08 234.33 94.53 237.03C90.12 244.72 85.14 254.05 79.5 261C79.5 249.35 76.63 258.59 76.63 250.69ZM187.5 245C186.8 239.51 192.42 223.63 200.93 229.61C201.38 229.93 192.04 240.73 187.5 245ZM288.07 238C290.13 238.39 292.2 238.78 294.26 239.17C292.66 247.13 283.09 255.21 275.25 256.3C276.19 254.84 277.13 253.39 278.07 251.93C281.4 247.29 284.74 242.64 288.07 238ZM112.47 256.49C116.68 256.75 109.64 269.73 107.79 271.98C107.47 272.37 107.32 272.7 106.73 272.67C102.02 272.45 103.89 255.95 112.47 256.49ZM108.67 273.93C108.86 274.62 109.05 275.31 109.24 276C108.35 276.43 97.02 291.71 96.25 293.69C96.17 293.88 96.2 294.11 96.25 294.31C96.46 295.21 100.16 297.58 101.02 298.33C99.69 300.22 98.37 302.11 97.05 304C96.87 303.23 96.68 302.47 96.5 301.7C95.02 306.13 93.55 310.57 92.07 315C86.39 310.74 98.51 287.06 100.37 280.84C102.8 277.3 103.86 274.01 108.67 273.93ZM514.84 309.11C507.23 319.26 499.61 329.41 492 339.56C488.38 343.34 486.03 349.19 483.11 353C481.85 354.65 477.85 352.23 477.27 355.65C477.03 357.06 478.64 357.33 478.63 358.5C478.6 361.3 472.95 365.7 470.87 367.1C468 365.12 456.78 362.63 455.52 360.15C454.74 358.61 465.63 336.63 467.18 333.55C469.56 328.82 482.72 299.18 485.58 298.15C493.52 295.31 508.64 304.73 514.84 309.11ZM74.28 301.31C69.33 330.11 79.29 365.12 105.96 380.59C113.64 385.04 121.69 386.51 130 389.08C123.05 393.13 106.99 383.7 101.31 379.19C77.78 360.49 66.86 329.96 72.5 300C73.09 300.44 73.68 300.87 74.28 301.31ZM131.91 300.17C131.23 304.58 131.65 308.24 134.76 311.59C129.52 318.01 125.68 323.56 127.27 332.42C127.88 335.84 134.72 344.23 132.72 347.24C130.74 350.21 125.81 346.23 124.07 345.04C114.09 332.81 112.85 315.53 123.63 303.04C125.82 306.57 128.93 301.46 131.91 300.17ZM192.74 370.4C194.7 362.35 198.81 355.23 198.74 346.5C198.59 326.67 185.01 308.53 165.44 304.18C160.3 303.04 155.16 303.87 150.17 303.29C153.18 297.16 170.24 303.65 175 305.96C193.02 314.72 204.44 335.5 199.07 356C197.88 360.54 196.93 368.2 192.74 370.4ZM467.25 314.43C463.52 311.16 465.52 315.38 462.5 315.94C459.25 316.54 454.71 313.52 451.47 313.03C446.69 312.31 441.47 314.05 436.53 312.97C405.09 306.07 367.22 315.96 337.5 326.12C323.9 330.77 313.47 339.28 301.97 347.47C299.2 349.44 297.35 348.08 296 345.5C297.5 345.67 299 345.83 300.5 346C299.59 344.28 298.67 342.56 297.76 340.84C323.53 312.61 382.75 304.68 418.5 304.41C431.57 304.32 444.64 305.72 457.5 307.67C461.47 308.28 470.79 308.74 467.25 314.43ZM269.36 322C264.48 303.45 239.91 305.74 236.69 323.97C235.53 330.53 240.34 334.97 243.56 339.62C239.92 341.53 237.44 334.69 236.39 331.53C234.18 324.93 235.45 313.66 242.03 309.6C247.66 306.13 258.57 305.63 263.9 310.1C266.36 312.16 273.3 320 269.36 322ZM161 311.41C162.12 311.77 163.23 312.13 164.35 312.49C160.9 313.27 157.45 314.05 154 314.83C151.53 315.94 149.06 317.06 146.58 318.17C144.11 320.11 141.64 322.06 139.17 324C140.78 321.33 142.39 318.67 144 316C145 315.27 146 314.55 147 313.82C147.19 313.76 147.38 313.69 147.57 313.62C148.04 313.42 148.52 313.21 149 313C153 312.47 157 311.94 161 311.41ZM149 313C148.56 313 148.12 313 147.68 313C148.12 313 148.56 313 149 313ZM144 316C143.83 315.67 143.67 315.33 143.5 315C143.67 315.33 143.83 315.67 144 316ZM155 317.5C154.41 318.23 149.38 323.57 148.25 321.31C146.76 318.34 153.78 317.34 155 317.5ZM138.44 326C138.54 326.33 138.63 326.67 138.73 327C138.63 326.67 138.54 326.33 138.44 326ZM288.03 384.18C276.61 380.56 275.78 360.36 285.77 354.43C289.33 355.88 291.62 350.8 297.5 349C296.7 356.69 286.6 362.14 286.03 371.53C285.56 379.26 299.86 380.09 288.03 384.18ZM178.09 374.33C187.04 374.62 160.15 389.91 158.34 390.76C157.59 391.12 156.95 391.17 156.37 391.83C156.02 392.25 155.28 394.24 155.38 394.79C156.09 398.85 173.81 389.02 176.68 387.93C173.79 394.67 146.14 401.31 139.69 398.81C135.9 397.35 140.96 394.22 139.47 392.03C138.21 390.19 134.62 391.05 133 389.59C143.49 388.56 154.47 389.53 164 383.8C168.7 380.65 173.39 377.49 178.09 374.33ZM391.96 384.91C395.95 386.78 389.24 394.45 392.29 398.99C396.21 404.82 401.96 397.87 406.4 400.05C410.46 402.03 405.44 409.28 409.07 412.4C412.4 415.28 427.32 410.06 433.21 409.9C434.52 410.85 435.82 411.81 437.13 412.77C436.27 419.11 432.19 416.35 427.93 418.52C425.51 419.75 420.79 430.51 420.23 433.5C419.6 436.83 425.33 456.41 426.69 456.81C428.61 457.39 433.06 455.13 435 454.38C450.83 459.05 444.06 434.17 454 442.23C451.43 445.61 458.2 448.86 454.81 452.25C453.89 453.18 453.09 450.97 451.72 451.64C447.51 453.69 447.5 465.84 447.5 469C441.8 463.3 438.42 469.81 432.47 470.97C428.99 471.65 425.47 465.36 423.69 466.25C421.72 467.24 422.85 473.18 420.7 475.5C423.16 475.24 431.24 476.87 426 479.17C421.26 479.21 420.91 483.61 418.47 486.97C415.62 490.88 407.17 493.03 404.83 498.04C403.78 498.69 402.72 499.35 401.67 500C397.99 494.85 383.97 506.72 382 511.13C379.22 511.02 369.98 510.83 367.75 512.19C367.72 512.2 366.54 516.22 366 517.05C365.72 517.02 365.44 516.99 365.17 516.96C361.99 515.7 358.21 513.75 364 512.5C358 511.3 361.13 509.8 358.5 507C346.11 515.12 345.24 501.74 340.31 501.19C335.15 500.61 329.82 502.2 327.78 499.38C326.82 498.05 318.05 494.53 318.88 492C319.81 489.17 327.34 488.86 329.63 488.16C336.66 486.01 343.43 480.95 347.21 474.57C356.86 458.32 358.3 441.46 357.22 424.66C356.87 419.31 366 413.32 368.64 409.23C379.5 403.44 381.01 391.46 391.96 384.91ZM650.68 387.46C661.53 387.36 643.95 400.94 641.08 404.58C638.92 407.33 638.39 411.11 636.17 413.77C635.23 414.88 634.3 415.71 632.73 414.89C629.58 413.25 632.1 406.1 633.06 403.95C636.35 396.59 640.9 387.56 650.68 387.46ZM286.55 428C287.36 424 288.18 420 289 416C297.36 412.15 292.86 432.25 291.47 433.59C290.44 434.59 288.72 429.1 286.55 428ZM486.25 438.54C479.18 446 481.48 456.3 468.7 462.5C474.12 468.97 476.95 457.48 480.5 455C482.13 453.86 485.78 454.28 486.78 452.28C488.07 449.7 486.52 447.22 488.29 444.83C488.92 448.89 489.54 452.94 490.17 457C487.88 458.72 485.6 460.44 483.31 462.17C482.71 460.44 482.1 458.72 481.5 457C478.98 459.64 478.13 463.89 472.97 466.47C470.85 467.53 467.06 465.93 465.53 468.03C463.02 471.48 467.89 472.1 467.78 474.34C467.73 475.35 465.83 477.01 465.5 478C467.17 477.33 468.83 476.67 470.5 476C471.24 481.5 464.1 485.41 461 481.12C460.05 468.75 447.87 483.97 441.24 485.96C443.44 481.3 446.58 477.23 448.84 472.34C449.34 471.28 448.99 468.92 449.53 468.41C450.52 467.46 457.45 471.19 458.59 469.47C461.88 464.49 457.32 459.84 460 452.88C460.67 452.98 461.33 453.09 462 453.2C474.43 454.43 481.85 435.52 486.25 438.54ZM449.17 490.25C448.28 491.5 447.39 492.75 446.5 494C448.71 492.9 455.32 486.45 456.78 491.66C458.02 496.09 444.14 502.57 440 500.5C441.67 498.5 443.33 496.5 445 494.5C441.89 495.54 439.66 498.47 436.83 495C439.26 492.02 445.86 487.87 449.17 490.25ZM455.96 675.71C448.18 664.68 445.99 631.78 422.67 646.15C412.07 652.68 414.4 666.94 421.39 675.14C424.5 678.77 428.84 686.68 424.08 690.57C415.53 697.56 381.02 662.09 374.94 693.5C372.92 703.92 380.83 712.76 390.5 715.31C395.64 716.66 404.46 715.88 404.83 723.51C405.55 738.53 362.64 729.19 371.72 757.7C373.09 762.02 376.32 764.55 378.8 768C377.12 767.5 375.43 767 373.74 766.5C383.29 780.35 397.77 774.43 407.02 764.41C411.25 759.82 419.68 755.58 424.06 762.02C421.31 768.24 418.57 774.46 415.83 780.68C414.03 787.18 416.72 794.12 421 799.1C412.16 811.9 458.75 814.55 452.89 794.87C458.12 786.29 458.54 776.56 465.32 769.28C493.29 764.46 487.5 790.26 508.52 794.16C528.37 797.86 538.23 773.3 524.28 760.21C520.69 756.85 507.61 753.85 507.4 748.32C507.24 744.22 519.74 732.15 522.5 726.16C532.76 742.2 555.1 723.01 547.63 707.86C538.62 689.59 527.17 705.98 517.33 707.67C513.62 708.31 507.9 704.8 505.02 702.74C502.33 698.77 499.47 692.15 502.5 688C504.73 690.57 520.15 677.17 516 676.17C515.67 676.01 515.33 675.85 515 675.69C526.2 662.36 524.91 637.32 501.5 639.78C477.51 642.3 484.18 685.1 455.96 675.71ZM392.62 646.27C378.04 648.97 386.27 669.85 399.31 666.81C408.84 664.59 403.69 644.22 392.62 646.27ZM497 648.14C495.95 648.7 494.9 649.27 493.85 649.83C494.9 649.27 495.95 648.7 497 648.14ZM495.66 651.22C498.24 650.91 495.29 655.42 494.47 655.59C492.55 656.01 494.08 651.41 495.66 651.22ZM489.57 658.75C489.99 659.5 490.41 660.25 490.83 661C490.41 660.25 489.99 659.5 489.57 658.75ZM554.69 666.67C550.87 667.18 547.71 666.48 544.13 668.62C536.67 673.07 532.75 686.3 541.8 690.61C546.75 692.97 566.65 686.62 568.48 681.98C571.67 673.9 561.83 665.72 554.69 666.67ZM439.3 762.5C435.37 768.68 431.43 774.86 427.5 781.04C424.86 773.98 432.02 763.26 439.3 762.5Z" fill="#fefefe" fill-rule="evenodd" stroke="#fefefe" stroke-width="0.25" stroke-linejoin="round"/>
<path d="M727.9 30.95C720.95 31.01 718.6 38.4 715.67 44.2C708.92 57.57 700.18 70.1 692.37 82.89C668.49 122.01 642.27 160.12 615.91 197.37C608.3 208.13 582.2 239.45 578.82 249.05C574.22 252.86 569.34 262.26 566 267.5C561.12 275.16 552.29 282.11 546.43 289.96C540.23 298.25 535.85 306.29 527.38 303.5C526.91 304.65 526.44 305.8 525.98 306.95C517.72 301.58 509.77 296.5 500.57 292.82C498.37 291.94 491.02 291.39 490.01 289.32C489.67 288.63 499.79 271.96 501.03 269.86C512.48 250.54 524.04 225.71 540.14 209.88C540.63 226.58 536.62 215.64 533.5 225C535.28 224.17 537.05 223.33 538.83 222.5C536.5 225.84 533.52 226.04 531.19 228.69C529.43 230.68 531.16 231.55 531.14 233.52C531.11 236.36 526.72 241.33 525.29 243.81C517.43 257.48 504.39 273.36 501.5 289C514.33 277.53 521.23 260 533.22 247.65C537.32 243.43 542.15 247.19 546 243.5C544.07 242.83 542.15 242.17 540.22 241.5C544.95 237.4 545.96 241.24 546.5 235.68C550.42 240.44 551.35 237.26 554.22 233.72C555.18 232.53 556.91 233.53 557.78 232.28C559.12 230.36 557.02 226.95 558.45 224.93C559.73 223.12 563.33 225.45 565.28 222.84C566.82 220.79 570.85 210.85 571.38 209.69C573.13 205.8 580.85 206.34 581.44 204C581.74 202.79 578.58 201.88 578.5 200C579.53 200.17 580.57 200.33 581.6 200.5C585.14 194.25 587.49 188.43 592.52 182.71C593.2 181.93 595.24 181.24 595.54 180.24C596.12 178.31 592.61 178.47 592.89 176.66C593.21 174.61 596.14 178.81 598.5 171.99C599.3 172.2 601.84 173.69 602.26 173.66C604.05 173.53 604.63 165.23 604.82 164.57C606.08 160.17 618.17 156.47 617.12 146.52C616.76 143.09 613.43 145.7 612.45 143.57C611.74 142.02 618.07 134.96 619.1 133.63C642.43 103.77 668.44 75.65 691.1 45.5C687.33 46.72 674.49 61.28 670.62 65.13C653.46 82.24 632.99 99.61 618.82 119.28C613.85 126.19 596.78 147.94 589.12 147.5C590.3 145.6 591.47 143.69 592.65 141.79C597.83 130.39 611.37 118.97 619.77 109.51C641.49 85.06 663.91 61.55 688.57 40.06C695.89 33.68 727.28 6.61 727.9 30.95ZM431.69 118.71C444.47 119.77 416.53 135.66 415.24 134C410.83 128.32 427.34 118.35 431.69 118.71ZM685.22 174.86C737.23 217.09 770.85 275.3 776.72 342.5C786.19 450.94 688 588.61 577.49 604.84C543.03 609.9 502.47 593.82 508.13 552.52C511.44 528.34 541.82 507.57 553.66 484.19C567.73 456.39 571.36 424.21 564.53 393.86C561.92 382.23 555.17 372.4 551.97 361.27C565.63 350.04 577.07 332.34 587.74 318.24C609.24 289.84 630.32 260.95 649.32 230.78C657.44 217.89 665.67 205.02 673.38 191.86C676.49 186.54 679.66 177.5 685.22 174.86ZM142.17 293C137.68 290.48 134.55 298.14 131.91 300.17C128.93 301.46 125.82 306.57 123.63 303.04C134.36 280.15 161.59 293.5 179.5 290.98C190.53 289.43 200.08 283.28 211.31 282.47C226.94 281.35 242.23 289.21 258 289.1C292.66 288.88 321.98 252.91 328.4 221C329.1 217.67 329.8 214.33 330.5 211C334.09 215.33 334.27 230.79 330.9 235.55C329.95 236.89 327.7 236.7 327.19 238.69C325.9 243.72 327.25 246.88 323.39 251.83C321.79 253.87 318.61 253.64 317.53 255.03C315.67 257.43 316.07 261.09 314.94 263.66C311.93 270.49 299.52 283.59 293.44 287.03C269.37 300.65 250.68 294.35 225 290.95C219.17 290.18 211.8 289.9 206 291.04C203.5 291.53 200.01 294.05 197.5 293.88C189.58 293.37 198.22 289.17 187 292.5C196.97 294.64 183.19 297.88 179.5 298.08C174.53 298.35 146.4 294.6 142.17 293ZM624.1 331C624.96 332.19 625.81 333.38 626.67 334.57C627.1 341.92 640.12 347.07 646.39 350.15C669.01 361.28 675.58 352.84 695.73 345.29C705.47 341.64 714.06 342.6 721.68 334.19C728.91 326.23 734.34 302.94 722.8 296.65C722.2 296.09 721.59 295.53 720.99 294.97C718.43 291.99 715.86 289.01 713.3 286.02C710.93 282.35 708.57 278.67 706.2 275C705.28 268.81 701.91 262.13 696.26 259.01C691.71 253.53 683.79 256.79 677.55 255.79C660.35 253.01 643.56 250.23 634.54 269.07C631.58 275.27 632.55 282.81 629.31 288.79C627.28 292.55 623.23 294.75 620.84 298.25C614.9 306.92 615.42 324.13 624.1 331ZM101.17 337C101.96 337.45 112.14 359.68 117.89 364.92C114.71 366.02 112.18 361.52 111.17 365.1C106.11 359.23 101.06 353.37 96 347.5C102.91 348.61 98.21 345.82 99.59 342.61C101.15 339.01 102.14 342.23 101.17 337ZM437.97 370.57C436.17 370.71 429.53 373.95 428.53 373.59C427.46 373.21 426.94 368.89 424.41 371.53C422.55 373.47 426.73 374.26 427 374.5C424.79 376.13 425.5 375.49 425.56 377.5C425.71 382.86 437.89 376.83 444.5 376C443.51 378.6 426.1 388.64 430.19 392.39C432.6 394.6 443.19 385.3 446.95 384.17C440.75 391.02 445.32 391.85 441.61 398.17C439.15 402.35 435.29 405.47 433.21 409.9C427.32 410.06 412.4 415.28 409.07 412.4C405.44 409.28 410.46 402.03 406.4 400.05C401.96 397.87 396.21 404.82 392.29 398.99C389.24 394.45 395.95 386.78 391.96 384.91C403.19 371.01 429.58 363.72 446.5 367.65C443.66 368.62 440.81 369.59 437.97 370.57ZM570.17 496C569.57 504.89 574.7 512.38 579.74 519.72C601.98 552.12 642.48 556.63 675.15 539.6C694.87 529.32 693.53 511.11 706.36 498.79C711.57 493.79 718.8 491.49 723.47 484.97C733 471.66 740.39 447.21 729.73 434C730.02 431.01 728.14 429.99 728.03 427.47C726.64 394.26 682.85 367.96 652.69 377.19C636.89 382.02 627.42 393.69 620.19 406.69C617.21 412.04 620.14 418.08 617.01 422.97C611.12 432.2 597.9 431.85 590.03 437.58C570.06 452.14 568.43 472.31 570.17 496ZM537.97 494.89C532.65 505.59 520.49 519.43 510.1 525.42C509.17 524.68 508.28 522.4 507.46 522.08C506.87 521.86 482.99 537.82 481.82 540.5C483.37 541.08 484.93 541.65 486.48 542.23C482.63 544.45 478.77 546.67 474.92 548.89C468.76 543.6 463.56 547.61 456.68 550.29C443.5 555.42 429.51 559.93 415.48 561.92C404.19 563.51 392.73 564.28 381.5 566.07C379.35 566.42 370.81 566.44 369.83 568.74C369.44 569.65 371.83 572.55 372.32 573.17C371.21 573.44 370.1 573.7 369 573.97C363.89 562.76 333.21 583.66 344.22 591.49C342.86 594.05 341.49 596.61 340.12 599.17C339.18 599.33 335.9 599.37 335.05 600.18C333.37 601.79 335.68 604.12 335.39 605.45C334.2 610.87 327.35 618.89 335.13 623.29C334.59 635.53 330.05 648.61 327.35 660.59C321.9 684.81 320.22 719.35 299.76 736.3C276.31 755.73 233.95 748.38 224.33 717.3C219.25 700.85 230.57 652.39 237.63 636C238.72 635.47 241.94 634.94 242.56 634.35C245.63 631.38 246.16 619.86 247.1 615.67C247.43 614.23 249.23 610.42 248.61 609.07C247.94 607.62 246.35 606.05 245.57 604.83C245.56 604.22 245.54 603.61 245.53 603C250.84 602.56 253.25 592.85 254.67 587.3C259.19 569.6 266.3 549.4 269.22 532.59C269.95 528.42 270.02 518.12 274 516.5C274.28 518.66 272.56 520.09 273.62 522.53C274.41 524.37 276.49 524.03 277.95 524.6C280.06 525.44 283.52 528.26 285.55 528.51C288.07 528.81 306.62 520.79 309.65 519.29C313.92 517.17 322.54 516.22 324.79 512.76C332.18 515.33 338.65 521.09 346.6 523.61C357.61 527.1 369.61 526.65 380.47 529.8C387 531.7 387.41 539.77 396.5 539.92C406.64 540.09 412.21 531.35 421.02 528.41C430.17 525.36 439.47 524.07 448.21 519.68C473.51 506.99 497.68 481.81 505.71 454.3C508.9 443.36 507.84 432.71 509.02 421.65C511.18 423.39 513.12 437.45 521.47 430.74C522.61 429.82 520.53 428.93 520.84 427.64C521.33 425.57 527.88 423.2 526.89 420.36C526.04 417.94 519.8 419.12 518.9 415.5C521.5 413.78 527.96 415.47 530.5 418.29C530.39 416.72 528.66 407.91 533.42 409.79C534.39 410.17 533.59 411.64 534.57 412.08C536.63 413.01 537.95 409.89 539.5 409.53C539.95 409.43 542.06 410.11 542.17 409.92C543.51 407.6 543.99 404.54 546.76 401.5C541.84 399.83 536.92 398.17 532 396.5C539.47 392.53 544.74 399.98 548.5 391C550.14 393.25 548.93 394.54 549.45 397.08C554.11 419.86 557.22 442.61 546.91 465.39C543.83 472.21 541.5 479.9 538.51 486.46C537.92 487.75 534.32 489.97 534.48 491.5C534.58 492.5 537.21 494.35 537.97 494.89ZM660.09 400.06C651.42 406.78 649.73 413.8 647.14 424.05C637.33 418.67 649.83 393.97 660.09 400.06ZM619 454.78C608.56 456.79 601.56 462.84 595.04 471.02C593.03 458.39 611.14 450.22 621.58 451.5C620.72 452.59 619.86 453.68 619 454.78ZM745.38 498.01C743.55 497.85 741.71 497.69 739.88 497.53C745.08 488.79 750.29 480.04 755.5 471.29C758.3 479.15 749.51 491.23 745.38 498.01ZM461 481.12C457.06 484.16 453.11 487.21 449.17 490.25C445.86 487.87 439.26 492.02 436.83 495C431.73 504.19 415.28 504.78 405.48 510.94C401.58 513.39 399.08 518.29 395.19 520.57C392.66 522.05 385.55 519.81 384.22 522.68C383.13 525.05 393.52 528.87 394.76 529C384.38 535.26 382.04 523.12 378.83 519C383.11 513.49 389.44 515.4 388.59 513.53C387.71 511.57 383.71 511.32 382 511.13C383.97 506.72 397.99 494.85 401.67 500C405.85 509.54 417.99 498.19 416 493.5C412.28 495.01 408.56 496.53 404.83 498.04C407.17 493.03 415.62 490.88 418.47 486.97C420.91 483.61 421.26 479.21 426 479.17C427.48 484.2 429.09 485.62 429 491.5C433.08 489.65 437.16 487.81 441.24 485.96C447.87 483.97 460.05 468.75 461 481.12ZM515 675.69C515 676.07 515 676.45 515 676.83C515 676.45 515 676.07 515 675.69ZM439.81 687.09C438.87 686.1 437.93 685.11 436.99 684.12C439.8 682.15 439.93 684.13 439.81 687.09ZM439.81 687.09C440.92 687.12 442.04 687.15 443.15 687.18C442.91 689.12 442.67 691.06 442.43 693C440.88 694.29 439.33 695.58 437.78 696.87C437.15 697.24 436.51 697.61 435.88 697.98C435.59 698.26 435.29 698.54 435 698.81C434.67 699.06 434.33 699.31 434 699.55C429.32 702.2 424.63 704.85 419.95 707.5C421.96 704.67 423.98 701.83 426 699C433.06 697.08 438.22 694.09 439.81 687.09ZM435.3 688C433.87 689.06 432.43 690.11 431 691.17C430.6 690.89 430.19 690.62 429.79 690.34C431.62 689.56 433.46 688.78 435.3 688ZM432.5 692C432.87 692.17 433.24 692.33 433.61 692.5C433.24 692.97 432.87 693.45 432.5 693.92C432.33 693.45 432.17 692.97 432 692.5C432.17 692.33 432.33 692.17 432.5 692ZM424.99 762.22C424.68 762.15 424.37 762.08 424.06 762.02C419.68 755.58 411.25 759.82 407.02 764.41C397.77 774.43 383.29 780.35 373.74 766.5C375.43 767 377.12 767.5 378.8 768C382.62 772.78 385.62 771.68 390.69 770.7C408.76 767.22 398.83 762.83 411.57 755.12C418.31 751.03 425.36 754.39 424.99 762.22Z" fill="#ebbe8a" fill-rule="evenodd" stroke="#ebbe8a" stroke-width="0.25" stroke-linejoin="round"/>
<path d="M540.14 209.88C557.64 187.18 575.14 164.49 592.65 141.79C591.47 143.69 590.3 145.6 589.12 147.5C596.78 147.94 613.85 126.19 618.82 119.28C632.99 99.61 653.46 82.24 670.62 65.13C674.49 61.28 687.33 46.72 691.1 45.5C668.44 75.65 642.43 103.77 619.1 133.63C618.07 134.96 611.74 142.02 612.45 143.57C613.43 145.7 616.76 143.09 617.12 146.52C618.17 156.47 606.08 160.17 604.82 164.57C604.63 165.23 604.05 173.53 602.26 173.66C601.84 173.69 599.3 172.2 598.5 171.99C596.14 178.81 593.21 174.61 592.89 176.66C592.61 178.47 596.12 178.31 595.54 180.24C595.24 181.24 593.2 181.93 592.52 182.71C587.49 188.43 585.14 194.25 581.6 200.5C580.57 200.33 579.53 200.17 578.5 200C578.58 201.88 581.74 202.79 581.44 204C580.85 206.34 573.13 205.8 571.38 209.69C570.85 210.85 566.82 220.79 565.28 222.84C563.33 225.45 559.73 223.12 558.45 224.93C557.02 226.95 559.12 230.36 557.78 232.28C556.91 233.53 555.18 232.53 554.22 233.72C551.35 237.26 550.42 240.44 546.5 235.68C545.96 241.24 544.95 237.4 540.22 241.5C542.15 242.17 544.07 242.83 546 243.5C542.15 247.19 537.32 243.43 533.22 247.65C521.23 260 514.33 277.53 501.5 289C504.39 273.36 517.43 257.48 525.29 243.81C526.72 241.33 531.11 236.36 531.14 233.52C531.16 231.55 529.43 230.68 531.19 228.69C533.52 226.04 536.5 225.84 538.83 222.5C537.05 223.33 535.28 224.17 533.5 225C536.62 215.64 540.63 226.58 540.14 209.88ZM474 88.65C476.83 90.76 479.67 92.88 482.5 95C478.79 98.56 475.8 91.5 470 91.5C469.67 93.07 471.74 94.12 470.47 95.97C468.24 99.2 461.5 90.37 461.5 88C453.97 95.53 454.36 88.22 449.47 87.03C445.63 86.09 444.23 90.21 441 85.63C452 86.63 463 87.64 474 88.65ZM495.83 91.8C501.62 90.44 511.8 94.38 517.66 95.71C536.89 100.05 555.85 105.43 574.42 112.14C577.57 113.28 596.74 120.31 596.87 122.48C597.04 125.17 590.69 130.49 589.02 132.54C581.41 141.95 573.64 151.22 566.17 160.75C541.63 192.05 517.49 224.56 497.54 259.04C491.43 269.6 485.03 279.98 479.13 290.65C477.79 293.05 475.67 300.55 473.21 301.72C469.8 303.34 461.1 299.94 457.43 299.3C445.69 297.27 433.41 296.22 421.5 296.22C374.97 296.19 319.91 305.52 285.97 340.48C275.75 351.01 265.29 368.43 273.5 383C275.79 387.05 284.69 389.7 285.75 392.58C287.21 396.56 283 406.39 282.09 410.54C279.02 424.57 275.54 438.59 272.11 452.54C270.8 457.87 270.05 467.27 266.5 471C263.29 463.41 260.85 455.48 255.52 448.98C225.05 411.84 180.53 440.28 142.5 440.96C94.85 441.82 59.65 405.3 52.6 359.74C49.91 342.36 51.6 325.48 54.61 308.3C57.27 293.16 65.96 261.51 76.63 250.69C76.63 258.59 79.5 249.35 79.5 261C85.14 254.05 90.12 244.72 94.53 237.03C96.08 234.33 102.2 230.45 101.47 226.97C99.6 218.13 94.27 233.26 93.97 233.47C92.69 234.36 88.16 234.52 87.25 236.69C87.11 237.01 88.43 239.33 88.5 240C86.67 240.01 84.83 240.02 83 240.04C87.65 233.4 92.29 226.77 96.94 220.13C99.04 222.14 100.28 224.48 103.5 224.94C104.67 225.1 111.5 216.13 111.5 214C109.53 215.03 101.6 217.15 100.2 216C103.46 212.28 106.72 208.56 109.97 204.84C116.45 209.13 116.77 216.16 118.5 222.98C125.83 215.34 125.38 202.9 120.6 194C122.61 191.91 124.62 189.81 126.63 187.72C126.92 190.48 127.21 193.24 127.5 196C129.17 194.32 130.83 192.64 132.5 190.96C131.5 193.31 130.5 195.65 129.5 198C132.86 198.98 134.46 192.35 138.08 193.56C141.59 194.74 140.95 204.77 145.21 202.91C157.5 209.34 169.04 204.89 170.09 190C173.85 191.62 170.21 184.5 169.15 183.03C167.05 180.11 159.15 177.25 159.9 173.54C160.5 170.59 168.46 168.42 170.5 166.92C181.79 158.67 195.37 148.55 208.54 142.92C225.7 135.58 242.41 126.59 261 121.08C263.89 120.22 271.7 115.38 274.47 116.15C275.86 116.54 275.74 124.33 278.19 126.31C281.32 128.86 286.92 134.51 289 127.5C285.24 128.75 281.68 123.03 286 121.56C286.54 121.38 286.46 121.24 287 121.56C287.72 121.99 288.42 124.91 289.47 124.59C291.18 124.08 293.28 119.64 292.78 117.66C292.11 114.98 284.1 114.58 283.44 116.5C283.08 117.52 285.13 117.98 285.5 119C280.44 117.91 281.78 119.04 278 119.5C276.15 113.57 310.97 105.06 316.5 105C322.73 104.93 329.62 102.5 336.5 101.13C358.3 96.77 378.66 96.22 399.47 95.89C405.09 95.8 414.36 96.24 420.47 94.97C421.25 94.81 423.5 92.44 423.5 92.44C424.18 92.56 424.01 94.35 424.72 94.78C427.3 96.36 441.36 96.85 444.47 95.97C446.34 95.44 444.47 87.6 449.97 91.53C452.69 93.48 448.21 95.29 447.5 96C460.84 98.53 475.94 98.82 489.5 100.63C495.62 101.44 500.69 96.35 495.83 91.8ZM489.5 229.55C497.17 218.71 517.59 211.56 519.65 205.39C520.77 202.04 518.44 197.08 518.53 193.5C518.93 176.82 516.73 161.47 501.9 150.57C496.29 146.45 489.09 145.07 483.59 140.94C473.01 133 471.55 119.31 458.24 113.28C427.42 99.3 417.3 120.65 397.42 133.96C387.02 140.93 375.73 142.64 368.05 153.58C351.13 177.7 359.46 214.55 381.76 231.76C384.77 234.08 388.3 238.58 392 239.5C395.98 240.49 422.47 243.25 425.08 245.3C425.89 245.95 426.1 247.57 426.9 248.01C427.3 248.23 440.61 248.38 447.57 251.43C447.7 251.49 449.43 251.59 449.48 251.55C450.36 250.83 449.78 249.65 450.67 248.86C453.84 246.06 480.87 245.34 480.1 237.5C480.1 239.29 480.1 241.08 480.1 242.87C484.94 240.15 494.25 240.55 493.6 232.01C493.33 228.52 492.82 228.78 489.5 229.55ZM257 134.5C265.36 132.91 272.73 147.1 278.69 135.19C279.48 133.6 280.91 131.98 279.78 129.72C275.05 120.26 269.29 130.81 262.5 129.94C260.22 129.64 258.02 125.61 255.5 125.38C251.04 124.96 251.44 129.54 249 130.5C240.06 134.01 235 132.49 235 145.5C240.64 143.62 235.89 139.48 239 137.56C240.76 136.48 241.89 140.89 243.47 140.59C246.91 139.96 246.01 133.62 251 137.5C243.27 143.51 255.01 145.65 260 146.5C258.33 144.17 256.67 141.83 255 139.5C257.71 137.47 263.9 137.95 257 134.5ZM76.89 306.09C76.02 304.5 75.15 302.91 74.28 301.31C73.68 300.87 73.09 300.44 72.5 300C66.86 329.96 77.78 360.49 101.31 379.19C106.99 383.7 123.05 393.13 130 389.08C131 389.25 132 389.42 133 389.59C134.62 391.05 138.21 390.19 139.47 392.03C140.96 394.22 135.9 397.35 139.69 398.81C146.14 401.31 173.79 394.67 176.68 387.93C182.03 382.08 187.38 376.24 192.74 370.4C196.93 368.2 197.88 360.54 199.07 356C204.44 335.5 193.02 314.72 175 305.96C170.24 303.65 153.18 297.16 150.17 303.29C149.51 303.64 148.85 304 148.2 304.35C147.97 302.57 147.73 300.78 147.5 299C145.72 297 143.94 295 142.17 293C146.4 294.6 174.53 298.35 179.5 298.08C183.19 297.88 196.97 294.64 187 292.5C198.22 289.17 189.58 293.37 197.5 293.88C200.01 294.05 203.5 291.53 206 291.04C211.8 289.9 219.17 290.18 225 290.95C250.68 294.35 269.37 300.65 293.44 287.03C299.52 283.59 311.93 270.49 314.94 263.66C316.07 261.09 315.67 257.43 317.53 255.03C318.61 253.64 321.79 253.87 323.39 251.83C327.25 246.88 325.9 243.72 327.19 238.69C327.7 236.7 329.95 236.89 330.9 235.55C334.27 230.79 334.09 215.33 330.5 211C329.8 214.33 329.1 217.67 328.4 221C328 213.33 327.59 205.67 327.18 198C327.79 198.5 328.39 199 329 199.5C328.65 194.22 325.68 189.99 323.2 185.5C311.26 163.85 300.25 160.85 276.53 155.84C252.36 150.74 252.51 144.5 224 149.79C205.55 153.21 191.92 177.11 189.22 193.69C187.76 202.65 190.68 205.42 182.55 213.07C179.41 216.02 165.71 229.35 163.31 230.46C154.18 234.69 133.86 234.18 125.53 239.47C110.27 249.16 90.98 265.87 84.19 283.69C82.53 288.02 82.67 293.22 80.81 297.31C78.79 301.77 77.62 298.81 76.89 306.09ZM148.22 169.72C149.24 179.54 142.46 183.29 134.13 180.98C138.83 177.23 143.53 173.47 148.22 169.72ZM660 261.5C657.53 264.65 648.32 280.87 642.92 274.42C637.01 267.38 654.07 257.67 660 261.5ZM109.24 276C109.24 278.91 106.85 284.73 112.07 282.01C108.38 287.45 104.7 292.89 101.02 298.33C100.16 297.58 96.46 295.21 96.25 294.31C96.2 294.11 96.17 293.88 96.25 293.69C97.02 291.71 108.35 276.43 109.24 276ZM187 303.5C189.53 309.53 196.77 310.58 201.09 314.54C202.96 316.26 209.33 350.37 223.34 333.9C227.56 328.94 224.25 321.77 221.19 317.23C213.88 306.41 200.08 304.67 187 303.5ZM243.56 339.62C258.1 343.31 270.95 339.67 269.36 322C273.3 320 266.36 312.16 263.9 310.1C258.57 305.63 247.66 306.13 242.03 309.6C235.45 313.66 234.18 324.93 236.39 331.53C237.44 334.69 239.92 341.53 243.56 339.62ZM161 311.41C157 311.94 153 312.47 149 313C148.56 313 148.12 313 147.68 313C146.05 308.2 158.07 309.38 161 311.41ZM514.84 309.11C516.29 310.32 517.74 311.53 519.19 312.74C518.29 318.87 505.99 335.87 500 331.5C499.19 335.76 497.96 342.19 492 339.56C499.61 329.41 507.23 319.26 514.84 309.11ZM691.11 319.15C688.11 321.11 685.11 323.06 682.11 325.01C678.04 325.55 672.67 328.43 669.5 325C671.28 323.41 676.52 323.55 679.39 321.82C684.66 318.65 689.52 311.69 695.3 309.5C693.9 312.72 692.51 315.94 691.11 319.15ZM467.25 314.43C463.54 325.65 456.35 336.87 451.11 347.62C449.91 350.09 447.78 357.73 445.36 358.98C439.83 361.81 428.24 358.81 421.64 360.29C402.55 364.57 386.44 375.95 375.85 392.32C373.04 396.66 367.69 404.02 368.64 409.23C366 413.32 356.87 419.31 357.22 424.66C358.3 441.46 356.86 458.32 347.21 474.57C343.43 480.95 336.66 486.01 329.63 488.16C327.34 488.86 319.81 489.17 318.88 492C318.05 494.53 326.82 498.05 327.78 499.38C329.82 502.2 335.15 500.61 340.31 501.19C345.24 501.74 346.11 515.12 358.5 507C361.13 509.8 358 511.3 364 512.5C358.21 513.75 361.99 515.7 365.17 516.96C357.09 518.88 326.23 508.91 320.5 503.12C320.08 507.8 322.73 508.89 324.79 512.76C322.54 516.22 313.92 517.17 309.65 519.29C306.62 520.79 288.07 528.81 285.55 528.51C283.52 528.26 280.06 525.44 277.95 524.6C276.49 524.03 274.41 524.37 273.62 522.53C272.56 520.09 274.28 518.66 274 516.5C270.02 518.12 269.95 528.42 269.22 532.59C266.3 549.4 259.19 569.6 254.67 587.3C253.25 592.85 250.84 602.56 245.53 603C259.2 544.67 272.87 486.33 286.55 428C288.72 429.1 290.44 434.59 291.47 433.59C292.86 432.25 297.36 412.15 289 416C289.59 410.74 296.91 389.54 294.2 386.26C292.95 384.74 289.69 385 288.03 384.18C299.86 380.09 285.56 379.26 286.03 371.53C286.6 362.14 296.7 356.69 297.5 349C291.62 350.8 289.33 355.88 285.77 354.43C289.77 349.9 293.76 345.37 297.76 340.84C298.67 342.56 299.59 344.28 300.5 346C299 345.83 297.5 345.67 296 345.5C297.35 348.08 299.2 349.44 301.97 347.47C313.47 339.28 323.9 330.77 337.5 326.12C367.22 315.96 405.09 306.07 436.53 312.97C441.47 314.05 446.69 312.31 451.47 313.03C454.71 313.52 459.25 316.54 462.5 315.94C465.52 315.38 463.52 311.16 467.25 314.43ZM147.68 313C148.12 313 148.56 313 149 313C148.52 313.21 148.04 313.42 147.57 313.62C147.6 313.42 147.64 313.21 147.68 313ZM147 313.82C146 314.55 145 315.27 144 316C143.83 315.67 143.67 315.33 143.5 315C143.67 315.33 143.83 315.67 144 316C142.39 318.67 140.78 321.33 139.17 324C138.92 324.67 138.68 325.33 138.44 326C138.54 326.33 138.63 326.67 138.73 327C138.66 327.76 138.58 328.53 138.5 329.29C136.81 326.11 136.57 316.12 140.72 314.22C142.19 313.55 145.1 314.39 147 313.82ZM154 314.83C156.02 314.18 164.67 315.36 161.28 319.4C161.1 319.62 148.97 325.74 148.56 325.7C144.87 325.4 143.73 320.04 146.58 318.17C149.06 317.06 151.53 315.94 154 314.83ZM155 317.5C153.78 317.34 146.76 318.34 148.25 321.31C149.38 323.57 154.41 318.23 155 317.5ZM213.61 369.95C193.85 382.03 211.28 410.93 232.15 403.65C253.51 396.19 245.43 363.66 223.16 366.1C219.98 367.38 216.79 368.67 213.61 369.95ZM545.92 367.96C567.37 404.91 565.21 460.87 537.97 494.89C537.21 494.35 534.58 492.5 534.48 491.5C534.32 489.97 537.92 487.75 538.51 486.46C541.5 479.9 543.83 472.21 546.91 465.39C557.22 442.61 554.11 419.86 549.45 397.08C548.93 394.54 550.14 393.25 548.5 391C544.74 399.98 539.47 392.53 532 396.5C536.92 398.17 541.84 399.83 546.76 401.5C543.99 404.54 543.51 407.6 542.17 409.92C542.06 410.11 539.95 409.43 539.5 409.53C537.95 409.89 536.63 413.01 534.57 412.08C533.59 411.64 534.39 410.17 533.42 409.79C528.66 407.91 530.39 416.72 530.5 418.29C527.96 415.47 521.5 413.78 518.9 415.5C519.8 419.12 526.04 417.94 526.89 420.36C527.88 423.2 521.33 425.57 520.84 427.64C520.53 428.93 522.61 429.82 521.47 430.74C513.12 437.45 511.18 423.39 509.02 421.65C508.23 417.84 505.55 410.18 506.68 406.55C507.63 403.52 513.73 399.78 516.02 397.52C521.95 391.67 539.68 369.71 545.92 367.96ZM179.69 397.07C169.07 400 167.33 415.53 180.5 414.94C190.69 414.48 190.96 393.96 179.69 397.07ZM437.13 412.77C441.15 415.83 431.88 421.58 430.05 425.56C425.47 435.48 425.25 447.96 435 454.38C433.06 455.13 428.61 457.39 426.69 456.81C425.33 456.41 419.6 436.83 420.23 433.5C420.79 430.51 425.51 419.75 427.93 418.52C432.19 416.35 436.27 419.11 437.13 412.77ZM486.25 438.54C486.93 440.64 487.61 442.74 488.29 444.83C486.52 447.22 488.07 449.7 486.78 452.28C485.78 454.28 482.13 453.86 480.5 455C476.95 457.48 474.12 468.97 468.7 462.5C481.48 456.3 479.18 446 486.25 438.54ZM454 442.23C454.95 443.15 455.9 444.08 456.85 445C457.9 447.63 458.95 450.25 460 452.88C457.32 459.84 461.88 464.49 458.59 469.47C457.45 471.19 450.52 467.46 449.53 468.41C448.99 468.92 449.34 471.28 448.84 472.34C446.58 477.23 443.44 481.3 441.24 485.96C437.16 487.81 433.08 489.65 429 491.5C429.09 485.62 427.48 484.2 426 479.17C431.24 476.87 423.16 475.24 420.7 475.5C422.85 473.18 421.72 467.24 423.69 466.25C425.47 465.36 428.99 471.65 432.47 470.97C438.42 469.81 441.8 463.3 447.5 469C447.5 465.84 447.51 453.69 451.72 451.64C453.09 450.97 453.89 453.18 454.81 452.25C458.2 448.86 451.43 445.61 454 442.23ZM598.36 442.96C617.24 438.66 591.34 458.46 590.91 459.03C589.57 460.84 588.91 464.46 586.89 465.8C586.38 466.14 584.6 466.74 584.03 466.4C578.38 463.08 592.46 444.3 598.36 442.96ZM483.31 462.17C473 482.48 459.45 497.22 438.89 507.83C430.69 512.06 421.62 512.81 413.33 516.54C406.34 519.68 401.82 525.84 394.76 529C393.52 528.87 383.13 525.05 384.22 522.68C385.55 519.81 392.66 522.05 395.19 520.57C399.08 518.29 401.58 513.39 405.48 510.94C415.28 504.78 431.73 504.19 436.83 495C439.66 498.47 441.89 495.54 445 494.5C443.33 496.5 441.67 498.5 440 500.5C444.14 502.57 458.02 496.09 456.78 491.66C455.32 486.45 448.71 492.9 446.5 494C447.39 492.75 448.28 491.5 449.17 490.25C453.11 487.21 457.06 484.16 461 481.12C464.1 485.41 471.24 481.5 470.5 476C468.83 476.67 467.17 477.33 465.5 478C465.83 477.01 467.73 475.35 467.78 474.34C467.89 472.1 463.02 471.48 465.53 468.03C467.06 465.93 470.85 467.53 472.97 466.47C478.13 463.89 478.98 459.64 481.5 457C482.1 458.72 482.71 460.44 483.31 462.17ZM382 511.13C383.71 511.32 387.71 511.57 388.59 513.53C389.44 515.4 383.11 513.49 378.83 519C374.56 518.35 370.28 517.7 366 517.05C366.54 516.22 367.72 512.2 367.75 512.19C369.98 510.83 379.22 511.02 382 511.13ZM510.1 525.42C502.23 531.03 494.35 536.63 486.48 542.23C484.93 541.65 483.37 541.08 481.82 540.5C482.99 537.82 506.87 521.86 507.46 522.08C508.28 522.4 509.17 524.68 510.1 525.42ZM474.92 548.89C445.17 565.95 405.9 570.57 372.32 573.17C371.83 572.55 369.44 569.65 369.83 568.74C370.81 566.44 379.35 566.42 381.5 566.07C392.73 564.28 404.19 563.51 415.48 561.92C429.51 559.93 443.5 555.42 456.68 550.29C463.56 547.61 468.76 543.6 474.92 548.89ZM369 573.97C358.55 578.4 351.5 582.63 344.22 591.49C333.21 583.66 363.89 562.76 369 573.97ZM340.12 599.17C338.46 607.21 336.79 615.25 335.13 623.29C327.35 618.89 334.2 610.87 335.39 605.45C335.68 604.12 333.37 601.79 335.05 600.18C335.9 599.37 339.18 599.33 340.12 599.17ZM245.57 604.83C246.35 606.05 247.94 607.62 248.61 609.07C249.23 610.42 247.43 614.23 247.1 615.67C246.16 619.86 245.63 631.38 242.56 634.35C241.94 634.94 238.72 635.47 237.63 636C240.27 625.61 242.92 615.22 245.57 604.83ZM497 648.14C499.03 648.59 501.07 649.05 503.1 649.5C499.01 653.33 494.92 657.17 490.83 661C490.41 660.25 489.99 659.5 489.57 658.75C491 655.78 492.43 652.81 493.85 649.83C494.9 649.27 495.95 648.7 497 648.14ZM495.66 651.22C494.08 651.41 492.55 656.01 494.47 655.59C495.29 655.42 498.24 650.91 495.66 651.22ZM515 675.69C515.33 675.85 515.67 676.01 516 676.17C515.67 676.39 515.33 676.61 515 676.83C515 676.45 515 676.07 515 675.69ZM436.99 684.12C437.93 685.11 438.87 686.1 439.81 687.09C438.22 694.09 433.06 697.08 426 699C422.92 694.54 428.44 694.58 431 691.17C432.43 690.11 433.87 689.06 435.3 688C435.87 686.71 436.43 685.41 436.99 684.12ZM432.5 692C432.33 692.17 432.17 692.33 432 692.5C432.17 692.97 432.33 693.45 432.5 693.92C432.87 693.45 433.24 692.97 433.61 692.5C433.24 692.33 432.87 692.17 432.5 692ZM442.43 693C442.53 693.1 442.63 693.2 442.73 693.31C441.99 694.54 441.24 695.77 440.5 697C439.59 696.96 438.69 696.91 437.78 696.87C439.33 695.58 440.88 694.29 442.43 693ZM437.78 696.87C437.15 697.24 436.51 697.61 435.88 697.98C436.51 697.61 437.15 697.24 437.78 696.87ZM435.88 697.98C435.59 698.26 435.29 698.54 435 698.81C435.29 698.54 435.59 698.26 435.88 697.98Z" fill="#f7debc" fill-rule="evenodd" stroke="#f7debc" stroke-width="0.25" stroke-linejoin="round"/>
<path d="M102.34 200.62C104.89 202.02 107.43 203.43 109.97 204.84C106.72 208.56 103.46 212.28 100.2 216C99.11 217.38 98.03 218.75 96.94 220.13C92.29 226.77 87.65 233.4 83 240.04C80.88 243.59 78.76 247.14 76.63 250.69C65.96 261.51 57.27 293.16 54.61 308.3C51.6 325.48 49.91 342.36 52.6 359.74C59.65 405.3 94.85 441.82 142.5 440.96C180.53 440.28 225.05 411.84 255.52 448.98C260.85 455.48 263.29 463.41 266.5 471C270.05 467.27 270.8 457.87 272.11 452.54C275.54 438.59 279.02 424.57 282.09 410.54C283 406.39 287.21 396.56 285.75 392.58C284.69 389.7 275.79 387.05 273.5 383C265.29 368.43 275.75 351.01 285.97 340.48C319.91 305.52 374.97 296.19 421.5 296.22C433.41 296.22 445.69 297.27 457.43 299.3C461.1 299.94 469.8 303.34 473.21 301.72C475.67 300.55 477.79 293.05 479.13 290.65C485.03 279.98 491.43 269.6 497.54 259.04C517.49 224.56 541.63 192.05 566.17 160.75C573.64 151.22 581.41 141.95 589.02 132.54C590.69 130.49 597.04 125.17 596.87 122.48C596.74 120.31 577.57 113.28 574.42 112.14C555.85 105.43 536.89 100.05 517.66 95.71C511.8 94.38 501.62 90.44 495.83 91.8C488.56 90.75 481.28 89.7 474 88.65C463 87.64 452 86.63 441 85.63C368.1 76.66 271.19 98.7 206.42 132.72C192.36 140.11 157 157.69 148.22 169.72C143.53 173.47 138.83 177.23 134.13 180.98C131.63 183.23 129.13 185.47 126.63 187.72C124.62 189.81 122.61 191.91 120.6 194C119.04 191.38 117.47 188.76 115.91 186.14C131.65 172.64 146.7 159.03 164.13 147.54C252.25 89.44 363.28 67.84 467.46 79.32C499.39 82.83 530.78 89.45 561.4 99.18C569.85 101.86 596.56 115.34 603.48 114.43C606.47 114.04 622.69 93.87 625.88 90.36C645.77 68.47 666.56 46.72 689.85 28.39C699.68 20.66 717.84 5.7 730.45 16.03C740.15 23.97 735.67 39.91 732.5 49.98C723.46 78.71 708.77 105.77 694.85 132.35C693.22 135.46 679.42 159.2 679.71 159.99C680.92 163.33 698.18 175.1 701.93 178.54C718.14 193.37 733.34 209.68 745.43 228.09C792.84 300.27 798.45 400.42 763.78 479.28C737.17 539.78 688.21 592.58 627.83 620.37C600.57 632.93 568.15 641.6 538.66 631.78C522.61 626.44 508.52 612.54 503.03 596.49C501.26 591.31 498.34 566.53 496.37 566.29C493.6 565.95 465.06 582.55 459.24 584.69C440.25 591.7 420.54 596.12 400.48 598.79C390.44 600.12 379.78 600.1 370 602.82C347.46 609.09 342.98 629.58 338.97 649.51C334.03 674 328.07 728.42 317.53 748.02C301.98 776.9 259.56 785.08 234.43 764.06C210.98 744.46 210.49 715.13 216.71 687.43C227.05 641.35 238.61 595.53 249.17 549.5C253.69 529.82 264.9 505.1 255.69 485.79C235.76 444.03 193 464.78 159.51 469.76C144.1 472.05 127.52 471.95 112.64 466.82C32.45 439.18 31.76 327.03 61.17 262.67C71.85 239.31 87.47 221.11 102.34 200.62ZM592.65 141.79C575.14 164.49 557.64 187.18 540.14 209.88C524.04 225.71 512.48 250.54 501.03 269.86C499.79 271.96 489.67 288.63 490.01 289.32C491.02 291.39 498.37 291.94 500.57 292.82C509.77 296.5 517.72 301.58 525.98 306.95C530.87 313.64 537.19 315.97 542.9 325.11C542.6 343.85 559.83 318.15 563.71 313.24C581.87 290.24 599.86 267.17 616.54 243.06C649.48 195.43 679.93 145.85 705.27 93.74C713.07 77.69 729.14 48.61 727.9 30.95C727.28 6.61 695.89 33.68 688.57 40.06C663.91 61.55 641.49 85.06 619.77 109.51C611.37 118.97 597.83 130.39 592.65 141.79ZM551.97 361.27C555.17 372.4 561.92 382.23 564.53 393.86C571.36 424.21 567.73 456.39 553.66 484.19C541.82 507.57 511.44 528.34 508.13 552.52C502.47 593.82 543.03 609.9 577.49 604.84C688 588.61 786.19 450.94 776.72 342.5C770.85 275.3 737.23 217.09 685.22 174.86C683.17 173.2 678.16 167.82 675.41 167.91C673.05 167.99 670.2 174.71 669.08 176.61C663.93 185.4 658.64 194.08 653.13 202.66C628.23 241.37 601.97 278.77 573.19 314.7C568.53 320.52 544.37 345.12 544.69 350.51C544.87 353.46 549.93 359.23 551.97 361.27ZM470.87 367.1C474.45 370.8 478.07 373.86 482.83 372C484.94 375 487.04 378 489.15 381C488.4 382.81 489.36 388.12 492.11 387.52C496.28 386.59 501.58 378.86 504.62 375.98C511.02 369.92 536.9 347.29 539.34 340.82C540.08 338.88 536.97 334.54 535.94 333C532.35 328.28 528.75 323.56 525.16 318.83C523.17 316.8 521.18 314.77 519.19 312.74C517.74 311.53 516.29 310.32 514.84 309.11C508.64 304.73 493.52 295.31 485.58 298.15C482.72 299.18 469.56 328.82 467.18 333.55C465.63 336.63 454.74 358.61 455.52 360.15C456.78 362.63 468 365.12 470.87 367.1ZM297.76 340.84C293.76 345.37 289.77 349.9 285.77 354.43C275.78 360.36 276.61 380.56 288.03 384.18C289.69 385 292.95 384.74 294.2 386.26C296.91 389.54 289.59 410.74 289 416C288.18 420 287.36 424 286.55 428C272.87 486.33 259.2 544.67 245.53 603C245.54 603.61 245.56 604.22 245.57 604.83C242.92 615.22 240.27 625.61 237.63 636C230.57 652.39 219.25 700.85 224.33 717.3C233.95 748.38 276.31 755.73 299.76 736.3C320.22 719.35 321.9 684.81 327.35 660.59C330.05 648.61 334.59 635.53 335.13 623.29C336.79 615.25 338.46 607.21 340.12 599.17C341.49 596.61 342.86 594.05 344.22 591.49C351.5 582.63 358.55 578.4 369 573.97C370.1 573.7 371.21 573.44 372.32 573.17C405.9 570.57 445.17 565.95 474.92 548.89C478.77 546.67 482.63 544.45 486.48 542.23C494.35 536.63 502.23 531.03 510.1 525.42C520.49 519.43 532.65 505.59 537.97 494.89C565.21 460.87 567.37 404.91 545.92 367.96C544.72 365.71 540.21 356.62 537.45 356.29C534.5 355.94 528.45 363.95 526.44 365.94C517.25 375.02 506.45 383.14 500 393.5C498.82 395.39 496.07 395.01 495.24 396.53C493.66 399.43 498.49 409.96 498.89 413.5C500.26 425.49 498.87 447.6 490.17 457C489.54 452.94 488.92 448.89 488.29 444.83C487.61 442.74 486.93 440.64 486.25 438.54C481.85 435.52 474.43 454.43 462 453.2C462.61 450.5 470.67 438.19 467.97 436.53C465.14 434.79 459.74 444.28 456.85 445C455.9 444.08 454.95 443.15 454 442.23C444.06 434.17 450.83 459.05 435 454.38C425.25 447.96 425.47 435.48 430.05 425.56C431.88 421.58 441.15 415.83 437.13 412.77C435.82 411.81 434.52 410.85 433.21 409.9C435.29 405.47 439.15 402.35 441.61 398.17C445.32 391.85 440.75 391.02 446.95 384.17C448.07 381.21 451.16 380.19 452.78 378.28C454.24 376.56 454.64 368.83 451.17 369.09C446.5 369.45 443.81 373.35 437.97 370.57C440.81 369.59 443.66 368.62 446.5 367.65C429.58 363.72 403.19 371.01 391.96 384.91C381.01 391.46 379.5 403.44 368.64 409.23C367.69 404.02 373.04 396.66 375.85 392.32C386.44 375.95 402.55 364.57 421.64 360.29C428.24 358.81 439.83 361.81 445.36 358.98C447.78 357.73 449.91 350.09 451.11 347.62C456.35 336.87 463.54 325.65 467.25 314.43C470.79 308.74 461.47 308.28 457.5 307.67C444.64 305.72 431.57 304.32 418.5 304.41C382.75 304.68 323.53 312.61 297.76 340.84ZM458 391.5C458.59 392.54 461.7 397.37 462.5 397.56C463.3 397.76 464 396.62 464.28 395.84C465.09 393.6 467.39 383.05 466.63 379.5C465.96 376.42 456.53 377.31 456.5 379C457.95 379.02 460.48 378.53 461.44 380C461.87 380.66 461.31 392.32 460.5 392.56C459.63 392.82 458.9 391.59 458 391.5ZM219 451.63C234.44 454.77 244.13 459.6 255.5 470.92C258.84 460.07 241.48 442.84 230.92 441.21C199.22 430.1 168.73 450.23 136.69 448.55C118.45 447.6 99.79 442.77 85.12 431.43C78.38 426.22 72.71 416.85 65.5 413C80.92 448.37 116.42 467.27 154.33 462.59C176.11 459.91 196.6 450.16 219 451.63ZM448 428.5C446.24 428.26 442.5 429.47 441 428.44C439.73 427.56 441.35 425.32 438.69 426.19C434.97 427.4 432.8 437.95 436.19 440.31C438.14 441.68 445.43 431.07 448 428.5ZM739.88 497.53C728.88 506.88 721 522.59 710.93 533.42C695.01 550.54 676.74 564.05 658.82 578.78C653.32 580.84 648.14 585.48 642.86 588.38C629.45 595.73 616.14 602.4 601.6 607.05C597.6 608.34 578.05 612.24 576.83 614C565.89 613.65 554.94 613.3 544 612.95C532.31 608.79 517.33 604.14 511.5 593C510.02 603.97 527.19 616.19 534.53 621.13C537.01 622.81 541.67 622.36 544.2 623.58C574.3 638.15 640.09 612.6 663.76 589.87C689.39 571.28 736 528.63 745.38 498.01C749.51 491.23 758.3 479.15 755.5 471.29C750.29 480.04 745.08 488.79 739.88 497.53ZM401.67 500C402.72 499.35 403.78 498.69 404.83 498.04C408.56 496.53 412.28 495.01 416 493.5C417.99 498.19 405.85 509.54 401.67 500ZM501.5 542.41C499.15 543.9 485.29 555.41 484.5 555.52C468.96 557.6 451.65 567.83 435.36 572.13C423.28 575.32 409.57 574.39 397.69 578.26C394.45 579.31 391.52 582.45 388.34 582.78C386.51 582.97 386.64 581.07 385.31 580.5C383.84 579.86 378.35 580.84 376.45 581.03C362.65 582.38 356.72 589.26 349.91 599.47C349.27 600.42 346.79 602.69 347.22 604.28C347.33 604.7 348.68 604.54 349 604.5C352.77 603.97 359.44 598.2 363.99 596.32C373.88 592.24 388.13 590.98 398.69 590.02C426.33 587.48 457.43 580.62 481.08 565.45C490.93 559.13 501.41 555.49 501.5 542.41ZM230.65 742.65C224.78 745.52 240.53 758.83 243.09 760.49C253.92 767.5 265.65 766.55 276.78 763.49C280.68 762.42 283.95 765.42 288.84 763.34C292.11 761.95 302.88 757.85 303.05 753.21C303.4 743.38 269.94 757.94 266.53 757.82C264.9 757.76 264.42 755.42 263.14 754.99C255.04 752.31 247.4 752.26 239.68 747.81C238.11 746.91 232.32 741.83 230.65 742.65Z" fill="#925d3b" fill-rule="evenodd" stroke="#925d3b" stroke-width="0.25" stroke-linejoin="round"/>
<path d="M191.67 90.41C203.12 87.3 205.44 108.99 192.5 109.29C188.64 109.38 177.62 100.95 183.76 97.04C185.55 95.9 187.82 98.41 189.6 96.09C191.27 93.9 188.57 91.25 191.67 90.41ZM139.66 102.32C157.58 98.21 173.54 117.67 162.34 133.8C155.99 142.94 145.68 138.83 137.72 144.23C135.08 146.01 130.81 156.61 128.57 156.3C123.8 155.65 125.3 141.16 125.26 138C125.11 123.82 120.31 106.76 139.66 102.32ZM55.64 215.45C66.09 212.76 68.76 233.13 56.45 233.63C51.55 233.83 42.08 225.19 47.98 220.39C49.84 218.88 50.48 223.22 53.15 221.69C56.05 220.03 52.19 216.33 55.64 215.45ZM124.12 257.3C128.18 253.7 132.24 250.09 136.29 246.49C141.79 244.24 166.23 237.7 165.6 250.47C165.45 253.49 161.7 255.72 159 255.35C154.97 254.78 151.53 251.95 147.48 251.21C137.88 249.47 132.42 255.07 124.12 257.3ZM696.26 259.01C697 268 700.42 271.8 690.81 277.5C698.23 279.09 705.12 284.13 706.2 275C708.57 278.67 710.93 282.35 713.3 286.02C714.7 298.39 713.15 307.27 702.7 315.07C700.02 317.08 693.71 321.55 691.11 319.15C692.51 315.94 693.9 312.72 695.3 309.5C689.52 311.69 684.66 318.65 679.39 321.82C676.52 323.55 671.28 323.41 669.5 325C672.67 328.43 678.04 325.55 682.11 325.01C683.62 329.57 670.93 330.28 667.5 330.87C659.79 332.2 648.19 333.33 640.73 331.64C636.86 330.76 628.1 324.32 623.68 327.11C622.62 327.78 623.83 330.09 624.1 331C615.42 324.13 614.9 306.92 620.84 298.25C623.23 294.75 627.28 292.55 629.31 288.79C632.55 282.81 631.58 275.27 634.54 269.07C643.56 250.23 660.35 253.01 677.55 255.79C683.79 256.79 691.71 253.53 696.26 259.01ZM660 261.5C654.07 257.67 637.01 267.38 642.92 274.42C648.32 280.87 657.53 264.65 660 261.5ZM123.97 274.68C120 277.12 116.03 279.56 112.07 282.01C106.85 284.73 109.24 278.91 109.24 276C109.05 275.31 108.86 274.62 108.67 273.93C111.27 272.16 113.87 270.39 116.47 268.62C119.62 266.4 129.85 261.76 132.93 266.39C135.42 270.14 126 273.26 123.97 274.68ZM663.5 295.06C664.85 274.11 669.03 285.74 679.02 276.49C680.3 275.3 680.39 270.61 679.33 269.26C673.43 261.78 655.03 271.27 659.56 288.79C660.42 292.12 660.24 293.64 663.5 295.06ZM142.17 293C143.94 295 145.72 297 147.5 299C147.73 300.78 147.97 302.57 148.2 304.35C144.68 310.23 141.94 312.95 134.76 311.59C131.65 308.24 131.23 304.58 131.91 300.17C134.55 298.14 137.68 290.48 142.17 293ZM97.05 304C97.08 306.65 95.87 316.84 96.03 317.47C97.31 322.42 99.28 327.57 99.86 333C92.58 335.67 92.91 320.65 92.07 315C93.55 310.57 95.02 306.13 96.5 301.7C96.68 302.47 96.87 303.23 97.05 304ZM187 303.5C200.08 304.67 213.88 306.41 221.19 317.23C224.25 321.77 227.56 328.94 223.34 333.9C209.33 350.37 202.96 316.26 201.09 314.54C196.77 310.58 189.53 309.53 187 303.5ZM164.35 312.49C173.46 313.02 179.1 321.18 184.02 327.98C185.76 333.51 180.03 343.08 179.28 351.03C179.24 351.48 179.28 353.94 179.75 354.13C180.72 354.53 183.39 353.42 184.84 353.5C174.16 384.07 136.38 383.63 113.19 368.17C112.51 367.15 111.84 366.12 111.17 365.1C112.18 361.52 114.71 366.02 117.89 364.92C120.19 366.3 136.18 374.12 137 369.34C137.29 367.65 133.61 366.6 133 364.5C141.88 360.85 170.63 365.74 167.24 344.5C164.21 325.5 143.47 343.28 138.5 329.29C138.58 328.53 138.66 327.76 138.73 327C138.63 326.67 138.54 326.33 138.44 326C138.68 325.33 138.92 324.67 139.17 324C141.64 322.06 144.11 320.11 146.58 318.17C143.73 320.04 144.87 325.4 148.56 325.7C148.97 325.74 161.1 319.62 161.28 319.4C164.67 315.36 156.02 314.18 154 314.83C157.45 314.05 160.9 313.27 164.35 312.49ZM729.73 434C729.42 440 729.11 446 728.79 452C728.49 463.98 717.03 476.81 707.58 484.59C704.94 486.75 698.31 489.46 696.88 492.48C693.32 499.96 690.48 507.66 686.47 514.97C684.46 518.64 676.2 524.75 672.6 526.78C668.01 529.36 663.78 536.39 658.31 536.81C648.16 537.6 634.04 541.7 622.69 539.66C616.55 538.56 608.82 535.81 602.17 534C600.19 530.68 598.05 531.75 595.5 529.92C588.08 524.59 581.7 515.14 576.17 507.89C573.86 504.87 573.29 497.46 570.17 496C568.43 472.31 570.06 452.14 590.03 437.58C597.9 431.85 611.12 432.2 617.01 422.97C620.14 418.08 617.21 412.04 620.19 406.69C627.42 393.69 636.89 382.02 652.69 377.19C682.85 367.96 726.64 394.26 728.03 427.47C728.14 429.99 730.02 431.01 729.73 434ZM650.68 387.46C640.9 387.56 636.35 396.59 633.06 403.95C632.1 406.1 629.58 413.25 632.73 414.89C634.3 415.71 635.23 414.88 636.17 413.77C638.39 411.11 638.92 407.33 641.08 404.58C643.95 400.94 661.53 387.36 650.68 387.46ZM179.69 397.07C190.96 393.96 190.69 414.48 180.5 414.94C167.33 415.53 169.07 400 179.69 397.07ZM660.09 400.06C649.83 393.97 637.33 418.67 647.14 424.05C644.92 429.56 657.06 440.17 662.5 439.9C670.28 439.5 668.38 426.37 675.48 427.48C679.21 428.07 679.63 435.44 680.24 438.49C682.41 449.38 680.03 460.92 673.51 469.98C669.48 475.57 653.92 487.88 647.93 478.56C642.84 470.63 648.23 462.6 637.46 455.04C628.72 448.91 626.8 453.95 619 454.78C619.86 453.68 620.72 452.59 621.58 451.5C611.14 450.22 593.03 458.39 595.04 471.02C590.06 484.9 598.44 502.83 614.88 502.5C613.26 498.83 607.84 497.48 605.26 494.25C598.05 485.2 600.02 471.33 609.13 464.51C615.91 459.43 634.82 459.36 634.7 471.49C634.66 475.88 628.75 479.34 627.5 483.88C623.23 478.36 630.9 474.92 627.69 469.5C617.29 474.21 618.72 487.78 629.09 492.37C648.87 501.15 673.07 489.82 682.52 471.1C688.75 458.74 689.01 432.48 675.12 424.45C668.27 420.49 656.17 434.08 654.5 419.11C652.96 405.39 670.8 404.44 679.53 407.79C684.01 409.51 695.86 422.36 697.42 419.97C698.82 417.81 693.45 411.06 692.14 409.32C684.63 399.31 671.59 394.72 660.09 400.06ZM598.36 442.96C592.46 444.3 578.38 463.08 584.03 466.4C584.6 466.74 586.38 466.14 586.89 465.8C588.91 464.46 589.57 460.84 590.91 459.03C591.34 458.46 617.24 438.66 598.36 442.96ZM515 675.69C515 676.07 515 676.45 515 676.83C515.33 676.61 515.67 676.39 516 676.17C520.15 677.17 504.73 690.57 502.5 688C499.47 692.15 502.33 698.77 505.02 702.74C498.24 706.45 494.59 700.8 490.57 706.41C489.79 702.91 489.54 690.07 487.5 691C484.64 695.38 487.17 701.83 482.42 706.04C477.48 710.42 458.11 706 455.05 700.41C453.7 697.96 456.16 693.25 453.9 691.6C450.78 689.3 445.5 691.76 442.73 693.31C442.63 693.2 442.53 693.1 442.43 693C442.67 691.06 442.91 689.12 443.15 687.18C443.38 686.74 443.61 686.29 443.83 685.85C445.28 685.07 449.27 684.73 450.33 683.64C453.18 680.72 450.07 677.12 455.96 675.71C484.18 685.1 477.51 642.3 501.5 639.78C524.91 637.32 526.2 662.36 515 675.69ZM493.85 649.83C492.43 652.81 491 655.78 489.57 658.75C489.99 659.5 490.41 660.25 490.83 661C494.92 657.17 499.01 653.33 503.1 649.5C501.07 649.05 499.03 648.59 497 648.14C495.95 648.7 494.9 649.27 493.85 649.83ZM489.19 711C481.3 719.62 470.36 718.05 459.74 720.31C447.62 705.26 456.67 705.03 433.17 705.31C434.78 703.86 436.39 702.41 438 700.96C452.19 698.05 460.27 709.16 472.66 711.4C474.69 711.77 476.1 709.56 477.66 709.27C481.85 708.46 483.86 712.02 484.03 712.09C485.96 712.93 487.08 709.92 489.19 711Z" fill="#f0bd28" fill-rule="evenodd" stroke="#f0bd28" stroke-width="0.25" stroke-linejoin="round"/>
<path d="M489.5 229.55C492.82 228.78 493.33 228.52 493.6 232.01C494.25 240.55 484.94 240.15 480.1 242.87C480.1 241.08 480.1 239.29 480.1 237.5C480.87 245.34 453.84 246.06 450.67 248.86C449.78 249.65 450.36 250.83 449.48 251.55C449.43 251.59 447.7 251.49 447.57 251.43C440.61 248.38 427.3 248.23 426.9 248.01C426.1 247.57 425.89 245.95 425.08 245.3C422.47 243.25 395.98 240.49 392 239.5C388.3 238.58 384.77 234.08 381.76 231.76C359.46 214.55 351.13 177.7 368.05 153.58C375.73 142.64 387.02 140.93 397.42 133.96C417.3 120.65 427.42 99.3 458.24 113.28C471.55 119.31 473.01 133 483.59 140.94C489.09 145.07 496.29 146.45 501.9 150.57C516.73 161.47 518.93 176.82 518.53 193.5C518.44 197.08 520.77 202.04 519.65 205.39C517.59 211.56 497.17 218.71 489.5 229.55ZM431.69 118.71C427.34 118.35 410.83 128.32 415.24 134C416.53 135.66 444.47 119.77 431.69 118.71ZM399 147.5C401.44 149.79 419.85 144.83 418.07 138.69C417.73 137.5 414.81 136.01 413.66 136.22C411.4 136.62 411.34 139.49 410.47 140.97C408.34 144.6 402.06 145.12 399 147.5ZM462.1 188.5C453.95 190.07 443.1 197.4 437.5 203C444.9 207.96 458.82 195.04 462.1 188.5ZM448.6 221.89C452.45 221.59 471.78 218.57 471.54 212.52C471.36 208.29 451.19 217.55 447.23 218.97C448.01 215.92 484.12 202.65 481.69 197.61C479.5 193.06 472.88 197.2 470.31 197.68C466.66 198.36 457.07 199.66 455.31 204.12C454.74 205.55 456.33 207.07 454.97 208.41C452.96 210.39 448.17 210.81 446.03 213.02C444.66 214.44 444.58 217.16 442.31 217.81C435.88 219.67 425.39 215.98 420 219.5C424.84 223.96 445.64 229.49 448.6 221.89ZM696.26 259.01C701.91 262.13 705.28 268.81 706.2 275C705.12 284.13 698.23 279.09 690.81 277.5C700.42 271.8 697 268 696.26 259.01ZM663.5 295.06C660.24 293.64 660.42 292.12 659.56 288.79C655.03 271.27 673.43 261.78 679.33 269.26C680.39 270.61 680.3 275.3 679.02 276.49C669.03 285.74 664.85 274.11 663.5 295.06ZM713.3 286.02C715.86 289.01 718.43 291.99 720.99 294.97C722.22 309.66 724.49 330.56 704.31 334.81C697.99 336.14 683.85 336.45 681 343.69C676.88 343.8 672.57 346.32 668.31 347.23C663.78 348.19 659.02 346.72 654.85 347.58C644.56 345.53 634.6 339.24 626.67 334.57C625.81 333.38 624.96 332.19 624.1 331C623.83 330.09 622.62 327.78 623.68 327.11C628.1 324.32 636.86 330.76 640.73 331.64C648.19 333.33 659.79 332.2 667.5 330.87C670.93 330.28 683.62 329.57 682.11 325.01C685.11 323.06 688.11 321.11 691.11 319.15C693.71 321.55 700.02 317.08 702.7 315.07C713.15 307.27 714.7 298.39 713.3 286.02ZM595.04 471.02C601.56 462.84 608.56 456.79 619 454.78C626.8 453.95 628.72 448.91 637.46 455.04C648.23 462.6 642.84 470.63 647.93 478.56C653.92 487.88 669.48 475.57 673.51 469.98C680.03 460.92 682.41 449.38 680.24 438.49C679.63 435.44 679.21 428.07 675.48 427.48C668.38 426.37 670.28 439.5 662.5 439.9C657.06 440.17 644.92 429.56 647.14 424.05C649.73 413.8 651.42 406.78 660.09 400.06C671.59 394.72 684.63 399.31 692.14 409.32C693.45 411.06 698.82 417.81 697.42 419.97C695.86 422.36 684.01 409.51 679.53 407.79C670.8 404.44 652.96 405.39 654.5 419.11C656.17 434.08 668.27 420.49 675.12 424.45C689.01 432.48 688.75 458.74 682.52 471.1C673.07 489.82 648.87 501.15 629.09 492.37C618.72 487.78 617.29 474.21 627.69 469.5C630.9 474.92 623.23 478.36 627.5 483.88C628.75 479.34 634.66 475.88 634.7 471.49C634.82 459.36 615.91 459.43 609.13 464.51C600.02 471.33 598.05 485.2 605.26 494.25C607.84 497.48 613.26 498.83 614.88 502.5C598.44 502.83 590.06 484.9 595.04 471.02ZM462 453.2C461.33 453.09 460.67 452.98 460 452.88C458.95 450.25 457.9 447.63 456.85 445C459.74 444.28 465.14 434.79 467.97 436.53C470.67 438.19 462.61 450.5 462 453.2ZM455.96 675.71C450.07 677.12 453.18 680.72 450.33 683.64C449.27 684.73 445.28 685.07 443.83 685.85C439.39 685.3 444.31 682.95 443.44 679.63C442.99 677.92 441 676.01 440.29 674.29C438.19 669.17 437.5 644.97 427.57 650.83C425.21 653.41 420.65 655.58 422.72 659.17C425.98 665.13 429.24 671.09 432.5 677.05C431.61 672.4 430.71 667.76 429.82 663.11C430.86 663.13 431.9 663.15 432.94 663.17C437.88 674.51 441.61 673.13 432.69 683.03C432.07 683.71 431.21 686.42 430.32 686.59C428.1 687.01 429.36 682.16 428.27 684.5C428.78 686.45 429.28 688.39 429.79 690.34C430.19 690.62 430.6 690.89 431 691.17C428.44 694.58 422.92 694.54 426 699C421.87 697.97 418.61 698.18 414.4 696.78C408.96 694.97 405.59 689.38 400.36 687.05C396.58 685.37 392.33 686.81 388.69 685.61C384.87 684.36 382.09 682.58 379.89 688.56C378.14 693.31 381.51 702.51 387.5 702.5C390.99 702.5 396.83 697.5 400.24 698.61C406.56 700.67 411.98 714.9 410.39 720C410.13 720.84 402.15 734.2 400.31 734.81C394.13 736.87 367.37 736.68 373.71 752.31C374.65 754.62 382.06 756.76 384.29 755.85C385.88 755.2 385.54 752.76 386.63 752.32C388.44 751.59 390.93 754 392.97 752.9C394.81 751.9 393.95 749.82 395.22 748.78C407.37 738.9 407.16 742.84 413.5 728C413.17 731.1 412.83 734.2 412.5 737.3C424.82 731.78 427.47 741.31 438 743.5C433.26 732.55 414.3 730.04 414.5 715C417.27 717.65 418.2 722.3 421.04 725.47C425.27 730.18 431.57 732.52 435.5 737.57C438 734.71 436.66 733.26 436.5 729.7C439.78 736.34 440.85 731.35 444.98 733.34C447.51 734.56 451.86 749.24 458.3 743C459.59 743.04 460.88 743.07 462.17 743.11C466.78 743.71 471.39 744.31 476 744.91C489 750.66 457.69 751.63 454.5 750.99C449.67 750.01 444.62 748.6 440.66 747.71C432.42 745.86 424.92 732.27 415.56 739.06C413.97 740.22 413.75 741.77 415.03 743.13C419.85 748.23 428.64 740.9 431.72 757.85C429.5 760.02 428.48 763.64 424.99 762.22C425.36 754.39 418.31 751.03 411.57 755.12C398.83 762.83 408.76 767.22 390.69 770.7C385.62 771.68 382.62 772.78 378.8 768C376.32 764.55 373.09 762.02 371.72 757.7C362.64 729.19 405.55 738.53 404.83 723.51C404.46 715.88 395.64 716.66 390.5 715.31C380.83 712.76 372.92 703.92 374.94 693.5C381.02 662.09 415.53 697.56 424.08 690.57C428.84 686.68 424.5 678.77 421.39 675.14C414.4 666.94 412.07 652.68 422.67 646.15C445.99 631.78 448.18 664.68 455.96 675.71ZM392.62 646.27C403.69 644.22 408.84 664.59 399.31 666.81C386.27 669.85 378.04 648.97 392.62 646.27ZM490.57 706.41C490.01 707.11 489.46 707.8 488.9 708.5C490.45 710.02 491.61 709.94 489.19 711C487.08 709.92 485.96 712.93 484.03 712.09C483.86 712.02 481.85 708.46 477.66 709.27C476.1 709.56 474.69 711.77 472.66 711.4C460.27 709.16 452.19 698.05 438 700.96C436.67 700.49 435.33 700.02 434 699.55C434.33 699.31 434.67 699.06 435 698.81C435.29 698.54 435.59 698.26 435.88 697.98C436.51 697.61 437.15 697.24 437.78 696.87C438.69 696.91 439.59 696.96 440.5 697C441.24 695.77 441.99 694.54 442.73 693.31C445.5 691.76 450.78 689.3 453.9 691.6C456.16 693.25 453.7 697.96 455.05 700.41C458.11 706 477.48 710.42 482.42 706.04C487.17 701.83 484.64 695.38 487.5 691C489.54 690.07 489.79 702.91 490.57 706.41ZM401.7 691.5C406.97 694.67 412.23 697.83 417.5 701C414.56 701.39 412.83 704.65 411.34 704.76C409.2 704.91 406.58 698.29 405.5 696.91C404.71 695.91 401.02 692.13 401.7 691.5ZM459.74 720.31C458.58 721.47 457.43 722.63 456.27 723.78C454.59 724.23 450.14 727.12 448.66 726.92C442.55 726.11 450.57 715.4 449.6 711.72C447.99 705.62 435.53 707.9 431.5 708.77C432.06 707.62 432.61 706.47 433.17 705.31C456.67 705.03 447.62 705.26 459.74 720.31Z" fill="#931916" fill-rule="evenodd" stroke="#931916" stroke-width="0.25" stroke-linejoin="round"/>
<path d="M327.18 198C327.59 205.67 328 213.33 328.4 221C321.98 252.91 292.66 288.88 258 289.1C242.23 289.21 226.94 281.35 211.31 282.47C200.08 283.28 190.53 289.43 179.5 290.98C161.59 293.5 134.36 280.15 123.63 303.04C112.85 315.53 114.09 332.81 124.07 345.04C123.85 348.04 125.72 349.4 128.32 351.17C141.69 360.26 143.81 348.47 151.17 345.68C153.15 344.92 155.75 345.82 156.44 347.95C159 355.95 147.87 358.81 142.5 359.02C132.51 359.41 118.71 352.68 114.08 343.27C107.66 330.22 107.68 315.72 114.14 302.67C116.63 297.63 126.07 291.52 125.5 286.7C114.54 290.73 110.02 307.19 104.5 308.89C102.04 295.15 116.85 281.36 128.97 277.49C132.53 276.35 140.12 276.01 142.78 273.34C145.44 270.68 141.03 264.73 137.85 265.54C135.22 266.2 133.65 273.8 123.97 274.68C126 273.26 135.42 270.14 132.93 266.39C129.85 261.76 119.62 266.4 116.47 268.62C111.73 267.46 122.87 261.17 124.12 257.3C132.42 255.07 137.88 249.47 147.48 251.21C151.53 251.95 154.97 254.78 159 255.35C161.7 255.72 165.45 253.49 165.6 250.47C166.23 237.7 141.79 244.24 136.29 246.49C132.78 241.35 139.55 241.97 142 237.65C151.02 235.1 160.03 232.54 169.05 229.99C170.21 233.08 175.39 231.3 176.7 234.83C179.9 243.47 172.24 266.36 160.5 265.17C150.88 264.19 149.43 252.96 139.5 257.55C150.18 257.86 156.22 271.01 167.52 267.19C175.25 264.58 181.12 247.45 181.69 247.31C182.96 247 184.45 251.18 186.13 250.6C188.58 249.75 196.65 241.5 199.53 239C203.12 235.9 216.28 231.82 209.87 227.49C206.59 225.27 205.22 223.56 201.04 222.5C211.93 220.84 248.13 230.23 252.5 219.77C228.62 231.67 198.02 194.38 179.57 229.5C177.04 224.52 174.94 228.48 171.72 227.66C176.61 220.56 186.16 214.65 189.72 207.22C198.54 188.79 188.24 178.51 210.07 160.56C229.94 144.21 249.93 150.35 271.88 156.56C277.55 158.17 283.46 158.07 289.19 159.41C308.93 164.02 320.08 180.49 327.18 198ZM115.91 186.14C117.47 188.76 119.04 191.38 120.6 194C125.38 202.9 125.83 215.34 118.5 222.98C116.77 216.16 116.45 209.13 109.97 204.84C107.43 203.43 104.89 202.02 102.34 200.62C98.31 196.75 88.64 198.24 83.23 195.3C68.84 187.47 66.12 162.75 82.85 155.74C82.92 156.93 74.05 165.59 74.02 172.5C73.99 179.09 82.46 190.54 89.57 190.7C92.2 190.75 92.31 188.26 94.3 188.2C100.72 188 111.1 195.72 115.5 199.91C114.01 192.53 105.49 188.13 102.24 181.25C98.11 172.52 107.42 164.36 100.66 156.86C98.45 154.4 94.08 155.35 91.83 153.66C115.06 147.24 110.4 181.02 115.91 186.14ZM271.5 165.52C261.69 163.13 254.22 156.47 243.5 156.16C221.45 155.54 201.26 171.35 202.04 194.5C202.12 196.99 201.09 203.18 202.37 205.26C203.17 206.57 204.22 205.13 205.24 205.48C209.16 206.84 210.86 211.95 214.48 203.08C216.41 198.33 215.82 192.64 217.08 187.66C218.17 183.4 222.1 180.52 223.24 176.8C223.54 175.82 221.41 174.54 224 173.56C229.63 171.44 237.96 165.68 244.51 165.5C252.01 165.3 265.3 173.9 271.5 165.52ZM170.09 190C169.04 204.89 157.5 209.34 145.21 202.91C132.26 182.81 162.77 167.73 170.09 190ZM288.07 238C284.74 242.64 281.4 247.29 278.07 251.93C274.46 246.54 279.74 244.75 280.14 239.5C277.07 240.65 271.26 249.01 268.58 252.13C268.41 252.33 267.5 253.13 267.6 253.5C268.32 256.06 273.88 258.78 275.25 256.3C283.09 255.21 292.66 247.13 294.26 239.17C303.85 235.03 302.07 203.83 291.5 200.48C299.49 213.36 290.35 225.25 288.07 238ZM270.5 203.93C269.16 208.16 270.59 212.91 270.07 217.5C268.74 229.2 257.23 236.61 246.51 238.5C264.06 239.35 281.11 220.81 270.5 203.93ZM269.36 322C270.95 339.67 258.1 343.31 243.56 339.62C240.34 334.97 235.53 330.53 236.69 323.97C239.91 305.74 264.48 303.45 269.36 322ZM184.02 327.98C194.1 330.7 191.02 353.69 187.29 360.77C185.23 364.68 172.89 374.38 178.09 374.33C173.39 377.49 168.7 380.65 164 383.8C166.1 382.04 168.2 380.27 170.3 378.5C155.49 379.06 147.69 387.04 130.65 381.69C127.98 380.85 100.36 368.49 108.24 366.83C109.89 367.27 111.54 367.72 113.19 368.17C136.38 383.63 174.16 384.07 184.84 353.5C183.39 353.42 180.72 354.53 179.75 354.13C179.28 353.94 179.24 351.48 179.28 351.03C180.03 343.08 185.76 333.51 184.02 327.98ZM223.16 366.1C245.43 363.66 253.51 396.19 232.15 403.65C211.28 410.93 193.85 382.03 213.61 369.95C212.63 372.86 205.35 386.08 209.63 388.56C210.61 389.13 230.06 384.08 231.34 383.06C232.59 382.05 231.99 379.86 232.13 378.5C233.07 369.85 231.01 369.25 223.16 366.1ZM476 744.91C473.26 739.42 482.61 742.59 482.54 745.53C482.49 748 473.81 752.88 472.04 753.5C478.02 756.4 484.66 754.95 489.17 761.14C483.64 765.61 466.89 759.15 465.32 769.28C458.54 776.56 458.12 786.29 452.89 794.87C441.99 804.46 434.05 807.71 421 799.1C416.72 794.12 414.03 787.18 415.83 780.68C416.38 782.72 416.94 784.76 417.5 786.81C422.65 777.43 428.87 795.77 433.52 789.17C434.65 787.57 431.11 785.28 432.56 783.17C434.26 780.69 440.77 780.02 443.11 772.96C444.52 768.72 441.59 763.98 442.43 759.7C443.04 756.61 450.4 754.4 447.47 751.2C439.27 742.24 437.57 766.31 431.72 757.85C428.64 740.9 419.85 748.23 415.03 743.13C413.75 741.77 413.97 740.22 415.56 739.06C424.92 732.27 432.42 745.86 440.66 747.71C444.62 748.6 449.67 750.01 454.5 750.99C457.69 751.63 489 750.66 476 744.91ZM499.01 737.72C496.99 742.4 493.94 746.31 492.74 751.46C492.02 754.57 492.84 757.79 491.92 760.68C484.17 755.5 490.19 737.51 499.01 737.72ZM462.04 757.5C453.6 756.81 438.25 768.32 446.18 775.36C447.05 776.13 448.06 776.28 449.07 775.63C450.36 774.79 456.14 761.85 462.04 757.5Z" fill="#294099" fill-rule="evenodd" stroke="#294099" stroke-width="0.25" stroke-linejoin="round"/>
<path d="M727.9 30.95C729.14 48.61 713.07 77.69 705.27 93.74C679.93 145.85 649.48 195.43 616.54 243.06C599.86 267.17 581.87 290.24 563.71 313.24C559.83 318.15 542.6 343.85 542.9 325.11C548.94 321.74 553.22 312.6 557.83 307.3C573.83 288.9 586.37 268.08 601.97 249.5C605.11 245.76 620.27 226.78 612.28 224.03C609.36 223.03 609.3 227.28 607.66 228.37C605.28 229.95 602.09 229.49 599.71 230.86C595.99 233 594.33 236.68 589.81 239.79C589.39 240.08 590.49 244.09 589.42 245.46C587.75 247.58 581.32 247.22 578.82 249.05C582.2 239.45 608.3 208.13 615.91 197.37C642.27 160.12 668.49 122.01 692.37 82.89C700.18 70.1 708.92 57.57 715.67 44.2C718.6 38.4 720.95 31.01 727.9 30.95ZM685.22 174.86C679.66 177.5 676.49 186.54 673.38 191.86C665.67 205.02 657.44 217.89 649.32 230.78C630.32 260.95 609.24 289.84 587.74 318.24C577.07 332.34 565.63 350.04 551.97 361.27C549.93 359.23 544.87 353.46 544.69 350.51C544.37 345.12 568.53 320.52 573.19 314.7C601.97 278.77 628.23 241.37 653.13 202.66C658.64 194.08 663.93 185.4 669.08 176.61C670.2 174.71 673.05 167.99 675.41 167.91C678.16 167.82 683.17 173.2 685.22 174.86ZM722.8 296.65C734.34 302.94 728.91 326.23 721.68 334.19C714.06 342.6 705.47 341.64 695.73 345.29C675.58 352.84 669.01 361.28 646.39 350.15C640.12 347.07 627.1 341.92 626.67 334.57C634.6 339.24 644.56 345.53 654.85 347.58C656.3 352.33 666.14 353.85 670.46 353.22C675.69 352.45 675.12 347.24 680 348.5C680.33 346.9 680.67 345.3 681 343.69C688.08 343.01 691.58 344.74 697.5 339C696.77 344.65 713.61 337.24 716 334.5C714.67 334.5 713.33 334.5 712 334.5C715.9 329.69 716.3 335.1 720.13 332.5C712.88 325.48 722.38 325.58 724.86 321C729.3 312.79 723.8 304.58 722.8 296.65ZM545.92 367.96C539.68 369.71 521.95 391.67 516.02 397.52C513.73 399.78 507.63 403.52 506.68 406.55C505.55 410.18 508.23 417.84 509.02 421.65C507.84 432.71 508.9 443.36 505.71 454.3C497.68 481.81 473.51 506.99 448.21 519.68C439.47 524.07 430.17 525.36 421.02 528.41C412.21 531.35 406.64 540.09 396.5 539.92C387.41 539.77 387 531.7 380.47 529.8C369.61 526.65 357.61 527.1 346.6 523.61C338.65 521.09 332.18 515.33 324.79 512.76C322.73 508.89 320.08 507.8 320.5 503.12C326.23 508.91 357.09 518.88 365.17 516.96C365.44 516.99 365.72 517.02 366 517.05C370.28 517.7 374.56 518.35 378.83 519C382.04 523.12 384.38 535.26 394.76 529C401.82 525.84 406.34 519.68 413.33 516.54C421.62 512.81 430.69 512.06 438.89 507.83C459.45 497.22 473 482.48 483.31 462.17C485.6 460.44 487.88 458.72 490.17 457C498.87 447.6 500.26 425.49 498.89 413.5C498.49 409.96 493.66 399.43 495.24 396.53C496.07 395.01 498.82 395.39 500 393.5C506.45 383.14 517.25 375.02 526.44 365.94C528.45 363.95 534.5 355.94 537.45 356.29C540.21 356.62 544.72 365.71 545.92 367.96ZM230.92 441.21C226.89 443.31 222.85 445.4 218.82 447.5C221.26 449.79 220.27 448.88 219 451.63C196.6 450.16 176.11 459.91 154.33 462.59C116.42 467.27 80.92 448.37 65.5 413C72.71 416.85 78.38 426.22 85.12 431.43C99.79 442.77 118.45 447.6 136.69 448.55C168.73 450.23 199.22 430.1 230.92 441.21ZM729.73 434C740.39 447.21 733 471.66 723.47 484.97C718.8 491.49 711.57 493.79 706.36 498.79C693.53 511.11 694.87 529.32 675.15 539.6C642.48 556.63 601.98 552.12 579.74 519.72C574.7 512.38 569.57 504.89 570.17 496C573.29 497.46 573.86 504.87 576.17 507.89C581.7 515.14 588.08 524.59 595.5 529.92C598.05 531.75 600.19 530.68 602.17 534C599.57 538.06 625.2 547.56 630.47 546.23C635.71 544.91 646.34 546.66 654.47 544.52C662.1 542.52 664.56 537.37 669.9 538.5C669.26 537.5 668.63 536.5 668 535.5C673.19 535.42 674.26 530.76 678 529.56C679.34 529.13 678.65 530.97 679.69 531.19C682.84 531.86 686.78 524.84 686.5 523C684.33 524.83 682.17 526.67 680 528.5C680.42 527.1 683.7 521.42 685.03 520.53C686.07 519.84 690.11 521.83 690.53 519.66C691.44 515.04 696.84 506.11 701.15 499.11C701.75 498.14 704.59 496.47 704.72 495.46C704.87 494.33 702.96 494.43 703.72 493.16C706.79 487.96 710.76 493.47 713.85 490.31C716.35 487.73 708.58 485.46 717.5 481C716.48 484.06 716.2 483.9 718.5 486.56C720.31 480.86 735.53 457.27 728.79 452C729.11 446 729.42 440 729.73 434ZM745.38 498.01C736 528.63 689.39 571.28 663.76 589.87C663.54 589.1 665.93 584.73 664.38 584.05C662.79 583.35 662.7 585.05 661.5 584C663.64 583.17 665.78 582.33 667.92 581.5C666.78 579.97 665.64 578.44 664.5 576.91C662.4 579.32 661.99 579.48 658.82 578.78C676.74 564.05 695.01 550.54 710.93 533.42C721 522.59 728.88 506.88 739.88 497.53C741.71 497.69 743.55 497.85 745.38 498.01ZM544 612.95C554.94 613.3 565.89 613.65 576.83 614C578.43 617.08 568.11 615.33 566.53 615.41C560.09 615.73 549.03 620.74 544 612.95ZM443.83 685.85C443.61 686.29 443.38 686.74 443.15 687.18C442.04 687.15 440.92 687.12 439.81 687.09C439.93 684.13 439.8 682.15 436.99 684.12C436.43 685.41 435.87 686.71 435.3 688C433.46 688.78 431.62 689.56 429.79 690.34C429.28 688.39 428.78 686.45 428.27 684.5C429.36 682.16 428.1 687.01 430.32 686.59C431.21 686.42 432.07 683.71 432.69 683.03C441.61 673.13 437.88 674.51 432.94 663.17C435.17 662.4 436.92 660.07 433.31 659.19C430.41 658.48 430.09 661.07 429.82 663.11C430.71 667.76 431.61 672.4 432.5 677.05C429.24 671.09 425.98 665.13 422.72 659.17C425.28 657.65 438.08 652.19 427.57 650.83C437.5 644.97 438.19 669.17 440.29 674.29C441 676.01 442.99 677.92 443.44 679.63C444.31 682.95 439.39 685.3 443.83 685.85ZM406.5 739C406.8 739.17 407.1 739.33 407.39 739.5C407.1 739.68 406.8 739.86 406.5 740.05C406.33 739.86 406.17 739.68 406 739.5C406.17 739.33 406.33 739.17 406.5 739Z" fill="#ca9266" fill-rule="evenodd" stroke="#ca9266" stroke-width="0.25" stroke-linejoin="round"/>
<path d="M399 147.5C402.06 145.12 408.34 144.6 410.47 140.97C411.34 139.49 411.4 136.62 413.66 136.22C414.81 136.01 417.73 137.5 418.07 138.69C419.85 144.83 401.44 149.79 399 147.5ZM462.1 188.5C458.82 195.04 444.9 207.96 437.5 203C443.1 197.4 453.95 190.07 462.1 188.5ZM447.23 218.97C447.68 219.95 448.14 220.92 448.6 221.89C445.64 229.49 424.84 223.96 420 219.5C425.39 215.98 435.88 219.67 442.31 217.81C444.58 217.16 444.66 214.44 446.03 213.02C448.17 210.81 452.96 210.39 454.97 208.41C456.33 207.07 454.74 205.55 455.31 204.12C457.07 199.66 466.66 198.36 470.31 197.68C472.88 197.2 479.5 193.06 481.69 197.61C484.12 202.65 448.01 215.92 447.23 218.97ZM542.9 325.11C537.19 315.97 530.87 313.64 525.98 306.95C526.44 305.8 526.91 304.65 527.38 303.5C535.85 306.29 540.23 298.25 546.43 289.96C552.29 282.11 561.12 275.16 566 267.5C569.34 262.26 574.22 252.86 578.82 249.05C581.32 247.22 587.75 247.58 589.42 245.46C590.49 244.09 589.39 240.08 589.81 239.79C594.33 236.68 595.99 233 599.71 230.86C602.09 229.49 605.28 229.95 607.66 228.37C609.3 227.28 609.36 223.03 612.28 224.03C620.27 226.78 605.11 245.76 601.97 249.5C586.37 268.08 573.83 288.9 557.83 307.3C553.22 312.6 548.94 321.74 542.9 325.11ZM720.99 294.97C721.59 295.53 722.2 296.09 722.8 296.65C723.8 304.58 729.3 312.79 724.86 321C722.38 325.58 712.88 325.48 720.13 332.5C716.3 335.1 715.9 329.69 712 334.5C713.33 334.5 714.67 334.5 716 334.5C713.61 337.24 696.77 344.65 697.5 339C691.58 344.74 688.08 343.01 681 343.69C683.85 336.45 697.99 336.14 704.31 334.81C724.49 330.56 722.22 309.66 720.99 294.97ZM681 343.69C680.67 345.3 680.33 346.9 680 348.5C675.12 347.24 675.69 352.45 670.46 353.22C666.14 353.85 656.3 352.33 654.85 347.58C659.02 346.72 663.78 348.19 668.31 347.23C672.57 346.32 676.88 343.8 681 343.69ZM446.95 384.17C443.19 385.3 432.6 394.6 430.19 392.39C426.1 388.64 443.51 378.6 444.5 376C437.89 376.83 425.71 382.86 425.56 377.5C425.5 375.49 424.79 376.13 427 374.5C426.73 374.26 422.55 373.47 424.41 371.53C426.94 368.89 427.46 373.21 428.53 373.59C429.53 373.95 436.17 370.71 437.97 370.57C443.81 373.35 446.5 369.45 451.17 369.09C454.64 368.83 454.24 376.56 452.78 378.28C451.16 380.19 448.07 381.21 446.95 384.17ZM458 391.5C458.9 391.59 459.63 392.82 460.5 392.56C461.31 392.32 461.87 380.66 461.44 380C460.48 378.53 457.95 379.02 456.5 379C456.53 377.31 465.96 376.42 466.63 379.5C467.39 383.05 465.09 393.6 464.28 395.84C464 396.62 463.3 397.76 462.5 397.56C461.7 397.37 458.59 392.54 458 391.5ZM448 428.5C445.43 431.07 438.14 441.68 436.19 440.31C432.8 437.95 434.97 427.4 438.69 426.19C441.35 425.32 439.73 427.56 441 428.44C442.5 429.47 446.24 428.26 448 428.5ZM230.92 441.21C241.48 442.84 258.84 460.07 255.5 470.92C244.13 459.6 234.44 454.77 219 451.63C220.27 448.88 221.26 449.79 218.82 447.5C222.85 445.4 226.89 443.31 230.92 441.21ZM728.79 452C735.53 457.27 720.31 480.86 718.5 486.56C716.2 483.9 716.48 484.06 717.5 481C708.58 485.46 716.35 487.73 713.85 490.31C710.76 493.47 706.79 487.96 703.72 493.16C702.96 494.43 704.87 494.33 704.72 495.46C704.59 496.47 701.75 498.14 701.15 499.11C696.84 506.11 691.44 515.04 690.53 519.66C690.11 521.83 686.07 519.84 685.03 520.53C683.7 521.42 680.42 527.1 680 528.5C682.17 526.67 684.33 524.83 686.5 523C686.78 524.84 682.84 531.86 679.69 531.19C678.65 530.97 679.34 529.13 678 529.56C674.26 530.76 673.19 535.42 668 535.5C668.63 536.5 669.26 537.5 669.9 538.5C664.56 537.37 662.1 542.52 654.47 544.52C646.34 546.66 635.71 544.91 630.47 546.23C625.2 547.56 599.57 538.06 602.17 534C608.82 535.81 616.55 538.56 622.69 539.66C634.04 541.7 648.16 537.6 658.31 536.81C663.78 536.39 668.01 529.36 672.6 526.78C676.2 524.75 684.46 518.64 686.47 514.97C690.48 507.66 693.32 499.96 696.88 492.48C698.31 489.46 704.94 486.75 707.58 484.59C717.03 476.81 728.49 463.98 728.79 452ZM501.5 542.41C501.41 555.49 490.93 559.13 481.08 565.45C457.43 580.62 426.33 587.48 398.69 590.02C388.13 590.98 373.88 592.24 363.99 596.32C359.44 598.2 352.77 603.97 349 604.5C348.68 604.54 347.33 604.7 347.22 604.28C346.79 602.69 349.27 600.42 349.91 599.47C356.72 589.26 362.65 582.38 376.45 581.03C378.35 580.84 383.84 579.86 385.31 580.5C386.64 581.07 386.51 582.97 388.34 582.78C391.52 582.45 394.45 579.31 397.69 578.26C409.57 574.39 423.28 575.32 435.36 572.13C451.65 567.83 468.96 557.6 484.5 555.52C485.29 555.41 499.15 543.9 501.5 542.41ZM663.76 589.87C640.09 612.6 574.3 638.15 544.2 623.58C541.67 622.36 537.01 622.81 534.53 621.13C527.19 616.19 510.02 603.97 511.5 593C517.33 604.14 532.31 608.79 544 612.95C549.03 620.74 560.09 615.73 566.53 615.41C568.11 615.33 578.43 617.08 576.83 614C578.05 612.24 597.6 608.34 601.6 607.05C616.14 602.4 629.45 595.73 642.86 588.38C648.14 585.48 653.32 580.84 658.82 578.78C661.99 579.48 662.4 579.32 664.5 576.91C665.64 578.44 666.78 579.97 667.92 581.5C665.78 582.33 663.64 583.17 661.5 584C662.7 585.05 662.79 583.35 664.38 584.05C665.93 584.73 663.54 589.1 663.76 589.87ZM427.57 650.83C438.08 652.19 425.28 657.65 422.72 659.17C420.65 655.58 425.21 653.41 427.57 650.83ZM432.94 663.17C431.9 663.15 430.86 663.13 429.82 663.11C430.09 661.07 430.41 658.48 433.31 659.19C436.92 660.07 435.17 662.4 432.94 663.17ZM426 699C423.98 701.83 421.96 704.67 419.95 707.5C424.63 704.85 429.32 702.2 434 699.55C435.33 700.02 436.67 700.49 438 700.96C436.39 702.41 434.78 703.86 433.17 705.31C432.61 706.47 432.06 707.62 431.5 708.77C435.53 707.9 447.99 705.62 449.6 711.72C450.57 715.4 442.55 726.11 448.66 726.92C450.14 727.12 454.59 724.23 456.27 723.78C451.23 735.6 448.85 731.74 458.3 743C451.86 749.24 447.51 734.56 444.98 733.34C440.85 731.35 439.78 736.34 436.5 729.7C436.66 733.26 438 734.71 435.5 737.57C431.57 732.52 425.27 730.18 421.04 725.47C418.2 722.3 417.27 717.65 414.5 715C414.3 730.04 433.26 732.55 438 743.5C427.47 741.31 424.82 731.78 412.5 737.3C412.83 734.2 413.17 731.1 413.5 728C407.16 742.84 407.37 738.9 395.22 748.78C393.95 749.82 394.81 751.9 392.97 752.9C390.93 754 388.44 751.59 386.63 752.32C385.54 752.76 385.88 755.2 384.29 755.85C382.06 756.76 374.65 754.62 373.71 752.31C367.37 736.68 394.13 736.87 400.31 734.81C402.15 734.2 410.13 720.84 410.39 720C411.98 714.9 406.56 700.67 400.24 698.61C396.83 697.5 390.99 702.5 387.5 702.5C381.51 702.51 378.14 693.31 379.89 688.56C382.09 682.58 384.87 684.36 388.69 685.61C392.33 686.81 396.58 685.37 400.36 687.05C405.59 689.38 408.96 694.97 414.4 696.78C418.61 698.18 421.87 697.97 426 699ZM401.7 691.5C401.02 692.13 404.71 695.91 405.5 696.91C406.58 698.29 409.2 704.91 411.34 704.76C412.83 704.65 414.56 701.39 417.5 701C412.23 697.83 406.97 694.67 401.7 691.5ZM406.5 739C406.33 739.17 406.17 739.33 406 739.5C406.17 739.68 406.33 739.86 406.5 740.05C406.8 739.86 407.1 739.68 407.39 739.5C407.1 739.33 406.8 739.17 406.5 739ZM230.65 742.65C232.32 741.83 238.11 746.91 239.68 747.81C247.4 752.26 255.04 752.31 263.14 754.99C264.42 755.42 264.9 757.76 266.53 757.82C269.94 757.94 303.4 743.38 303.05 753.21C302.88 757.85 292.11 761.95 288.84 763.34C283.95 765.42 280.68 762.42 276.78 763.49C265.65 766.55 253.92 767.5 243.09 760.49C240.53 758.83 224.78 745.52 230.65 742.65Z" fill="#c66435" fill-rule="evenodd" stroke="#c66435" stroke-width="0.25" stroke-linejoin="round"/>
<path d="M118.56 81.26C127.56 78.63 130.17 94.91 120.42 95.66C110.96 96.38 111.81 83.23 118.56 81.26ZM97.63 127.36C105.13 125.5 108.31 138.25 100.46 139.89C90.75 141.93 90.33 129.17 97.63 127.36ZM91.83 153.66C94.08 155.35 98.45 154.4 100.66 156.86C107.42 164.36 98.11 172.52 102.24 181.25C105.49 188.13 114.01 192.53 115.5 199.91C111.1 195.72 100.72 188 94.3 188.2C92.31 188.26 92.2 190.75 89.57 190.7C82.46 190.54 73.99 179.09 74.02 172.5C74.05 165.59 82.92 156.93 82.85 155.74C85.85 155.05 88.84 154.36 91.83 153.66ZM88.66 159.39C85.1 159.77 74.56 168.51 80.71 171.87C83.18 173.22 97.28 158.47 88.66 159.39ZM142 237.65C139.55 241.97 132.78 241.35 136.29 246.49C132.24 250.09 128.18 253.7 124.12 257.3C122.87 261.17 111.73 267.46 116.47 268.62C113.87 270.39 111.27 272.16 108.67 273.93C103.86 274.01 102.8 277.3 100.37 280.84C100 279.41 99.27 276.01 97.03 277.53C94.21 279.44 98.04 281.42 97.78 283.34C97.35 286.61 89.67 302.01 88.19 309.69C85.75 322.37 94.88 331.1 95.78 341.66C96.07 345.02 93.43 346.71 95.19 350.31C98.18 356.44 104.26 361.52 108.24 366.83C100.36 368.49 127.98 380.85 130.65 381.69C147.69 387.04 155.49 379.06 170.3 378.5C168.2 380.27 166.1 382.04 164 383.8C154.47 389.53 143.49 388.56 133 389.59C132 389.42 131 389.25 130 389.08C121.69 386.51 113.64 385.04 105.96 380.59C79.29 365.12 69.33 330.11 74.28 301.31C75.15 302.91 76.02 304.5 76.89 306.09C77.76 308.89 78.63 311.69 79.5 314.48C84.48 307.86 82.59 293.48 85.99 285C95.05 262.41 118.17 242.15 142 237.65ZM112.47 256.49C103.89 255.95 102.02 272.45 106.73 272.67C107.32 272.7 107.47 272.37 107.79 271.98C109.64 269.73 116.68 256.75 112.47 256.49ZM124.07 345.04C125.81 346.23 130.74 350.21 132.72 347.24C134.72 344.23 127.88 335.84 127.27 332.42C125.68 323.56 129.52 318.01 134.76 311.59C141.94 312.95 144.68 310.23 148.2 304.35C148.85 304 149.51 303.64 150.17 303.29C155.16 303.87 160.3 303.04 165.44 304.18C185.01 308.53 198.59 326.67 198.74 346.5C198.81 355.23 194.7 362.35 192.74 370.4C187.38 376.24 182.03 382.08 176.68 387.93C173.81 389.02 156.09 398.85 155.38 394.79C155.28 394.24 156.02 392.25 156.37 391.83C156.95 391.17 157.59 391.12 158.34 390.76C160.15 389.91 187.04 374.62 178.09 374.33C172.89 374.38 185.23 364.68 187.29 360.77C191.02 353.69 194.1 330.7 184.02 327.98C179.1 321.18 173.46 313.02 164.35 312.49C163.23 312.13 162.12 311.77 161 311.41C158.07 309.38 146.05 308.2 147.68 313C147.64 313.21 147.6 313.42 147.57 313.62C147.38 313.69 147.19 313.76 147 313.82C145.1 314.39 142.19 313.55 140.72 314.22C136.57 316.12 136.81 326.11 138.5 329.29C143.47 343.28 164.21 325.5 167.24 344.5C170.63 365.74 141.88 360.85 133 364.5C133.61 366.6 137.29 367.65 137 369.34C136.18 374.12 120.19 366.3 117.89 364.92C112.14 359.68 101.96 337.45 101.17 337C100.73 335.67 100.29 334.33 99.86 333C99.28 327.57 97.31 322.42 96.03 317.47C95.87 316.84 97.08 306.65 97.05 304C98.37 302.11 99.69 300.22 101.02 298.33C104.7 292.89 108.38 287.45 112.07 282.01C116.03 279.56 120 277.12 123.97 274.68C133.65 273.8 135.22 266.2 137.85 265.54C141.03 264.73 145.44 270.68 142.78 273.34C140.12 276.01 132.53 276.35 128.97 277.49C116.85 281.36 102.04 295.15 104.5 308.89C110.02 307.19 114.54 290.73 125.5 286.7C126.07 291.52 116.63 297.63 114.14 302.67C107.68 315.72 107.66 330.22 114.08 343.27C118.71 352.68 132.51 359.41 142.5 359.02C147.87 358.81 159 355.95 156.44 347.95C155.75 345.82 153.15 344.92 151.17 345.68C143.81 348.47 141.69 360.26 128.32 351.17C125.72 349.4 123.85 348.04 124.07 345.04ZM525.16 318.83C528.75 323.56 532.35 328.28 535.94 333C529.57 340.79 522.75 349.37 513.5 354C514.85 346.07 510 338.96 510.03 338.53C510.46 332.69 521.42 323.13 525.16 318.83ZM489.15 381C487.04 378 484.94 375 482.83 372C484.79 369.6 489.36 366.23 489.78 365.28C492.87 358.32 494.03 353.44 502.5 354C501.92 352.27 498.04 348.05 502.66 347.22C507.14 346.41 505.51 351.38 507 352.44C507.71 352.94 510.53 352.82 511.5 353C510.83 354.33 510.17 355.67 509.5 357C522.4 350.55 491.38 380.35 489.15 381ZM223.16 366.1C231.01 369.25 233.07 369.85 232.13 378.5C231.99 379.86 232.59 382.05 231.34 383.06C230.06 384.08 210.61 389.13 209.63 388.56C205.35 386.08 212.63 372.86 213.61 369.95C216.79 368.67 219.98 367.38 223.16 366.1ZM499.01 737.72C490.19 737.51 484.17 755.5 491.92 760.68C491.78 761.3 491.64 761.93 491.5 762.55C490.72 762.08 489.94 761.61 489.17 761.14C484.66 754.95 478.02 756.4 472.04 753.5C473.81 752.88 482.49 748 482.54 745.53C482.61 742.59 473.26 739.42 476 744.91C471.39 744.31 466.78 743.71 462.17 743.11C460.42 739.98 456.29 738.06 454.76 734.78C452.71 730.38 458.06 724.52 462.5 724.9C470.78 725.62 473.56 742.47 487.49 733.45C491.64 730.76 495.08 712.29 496.42 712.13C503.45 711.3 506.62 733.37 499.01 737.72ZM415.83 780.68C418.57 774.46 421.31 768.24 424.06 762.02C424.37 762.08 424.68 762.15 424.99 762.22C428.48 763.64 429.5 760.02 431.72 757.85C437.57 766.31 439.27 742.24 447.47 751.2C450.4 754.4 443.04 756.61 442.43 759.7C441.59 763.98 444.52 768.72 443.11 772.96C440.77 780.02 434.26 780.69 432.56 783.17C431.11 785.28 434.65 787.57 433.52 789.17C428.87 795.77 422.65 777.43 417.5 786.81C416.94 784.76 416.38 782.72 415.83 780.68ZM439.3 762.5C432.02 763.26 424.86 773.98 427.5 781.04C431.43 774.86 435.37 768.68 439.3 762.5Z" fill="#446dc4" fill-rule="evenodd" stroke="#446dc4" stroke-width="0.25" stroke-linejoin="round"/>
<path d="M554.69 666.67C561.83 665.72 571.67 673.9 568.48 681.98C566.65 686.62 546.75 692.97 541.8 690.61C532.75 686.3 536.67 673.07 544.13 668.62C547.71 666.48 550.87 667.18 554.69 666.67ZM465.32 769.28C466.89 759.15 483.64 765.61 489.17 761.14C489.94 761.61 490.72 762.08 491.5 762.55C491.64 761.93 491.78 761.3 491.92 760.68C492.84 757.79 492.02 754.57 492.74 751.46C493.94 746.31 496.99 742.4 499.01 737.72C506.62 733.37 503.45 711.3 496.42 712.13C495.08 712.29 491.64 730.76 487.49 733.45C473.56 742.47 470.78 725.62 462.5 724.9C458.06 724.52 452.71 730.38 454.76 734.78C456.29 738.06 460.42 739.98 462.17 743.11C460.88 743.07 459.59 743.04 458.3 743C448.85 731.74 451.23 735.6 456.27 723.78C457.43 722.63 458.58 721.47 459.74 720.31C470.36 718.05 481.3 719.62 489.19 711C491.61 709.94 490.45 710.02 488.9 708.5C489.46 707.8 490.01 707.11 490.57 706.41C494.59 700.8 498.24 706.45 505.02 702.74C507.9 704.8 513.62 708.31 517.33 707.67C527.17 705.98 538.62 689.59 547.63 707.86C555.1 723.01 532.76 742.2 522.5 726.16C519.74 732.15 507.24 744.22 507.4 748.32C507.61 753.85 520.69 756.85 524.28 760.21C538.23 773.3 528.37 797.86 508.52 794.16C487.5 790.26 493.29 764.46 465.32 769.28ZM462.04 757.5C456.14 761.85 450.36 774.79 449.07 775.63C448.06 776.28 447.05 776.13 446.18 775.36C438.25 768.32 453.6 756.81 462.04 757.5Z" fill="#44714d" fill-rule="evenodd" stroke="#44714d" stroke-width="0.25" stroke-linejoin="round"/>
<path d="M271.5 165.52C265.3 173.9 252.01 165.3 244.51 165.5C237.96 165.68 229.63 171.44 224 173.56C221.41 174.54 223.54 175.82 223.24 176.8C222.1 180.52 218.17 183.4 217.08 187.66C215.82 192.64 216.41 198.33 214.48 203.08C210.86 211.95 209.16 206.84 205.24 205.48C204.22 205.13 203.17 206.57 202.37 205.26C201.09 203.18 202.12 196.99 202.04 194.5C201.26 171.35 221.45 155.54 243.5 156.16C254.22 156.47 261.69 163.13 271.5 165.52ZM235.7 163.5C228.16 158.3 206.72 171.06 210.38 179.26C210.89 180.39 212.79 180.73 213.81 180.3C214.08 180.19 232.91 165.43 235.7 163.5ZM294.26 239.17C292.2 238.78 290.13 238.39 288.07 238C290.35 225.25 299.49 213.36 291.5 200.48C302.07 203.83 303.85 235.03 294.26 239.17ZM270.5 203.93C281.11 220.81 264.06 239.35 246.51 238.5C257.23 236.61 268.74 229.2 270.07 217.5C270.59 212.91 269.16 208.16 270.5 203.93ZM169.05 229.99C169.94 229.21 170.83 228.44 171.72 227.66C174.94 228.48 177.04 224.52 179.57 229.5C198.02 194.38 228.62 231.67 252.5 219.77C248.13 230.23 211.93 220.84 201.04 222.5C205.22 223.56 206.59 225.27 209.87 227.49C216.28 231.82 203.12 235.9 199.53 239C196.65 241.5 188.58 249.75 186.13 250.6C184.45 251.18 182.96 247 181.69 247.31C181.12 247.45 175.25 264.58 167.52 267.19C156.22 271.01 150.18 257.86 139.5 257.55C149.43 252.96 150.88 264.19 160.5 265.17C172.24 266.36 179.9 243.47 176.7 234.83C175.39 231.3 170.21 233.08 169.05 229.99ZM187.5 245C192.04 240.73 201.38 229.93 200.93 229.61C192.42 223.63 186.8 239.51 187.5 245ZM278.07 251.93C277.13 253.39 276.19 254.84 275.25 256.3C273.88 258.78 268.32 256.06 267.6 253.5C267.5 253.13 268.41 252.33 268.58 252.13C271.26 249.01 277.07 240.65 280.14 239.5C279.74 244.75 274.46 246.54 278.07 251.93ZM100.37 280.84C98.51 287.06 86.39 310.74 92.07 315C92.91 320.65 92.58 335.67 99.86 333C100.29 334.33 100.73 335.67 101.17 337C102.14 342.23 101.15 339.01 99.59 342.61C98.21 345.82 102.91 348.61 96 347.5C101.06 353.37 106.11 359.23 111.17 365.1C111.84 366.12 112.51 367.15 113.19 368.17C111.54 367.72 109.89 367.27 108.24 366.83C104.26 361.52 98.18 356.44 95.19 350.31C93.43 346.71 96.07 345.02 95.78 341.66C94.88 331.1 85.75 322.37 88.19 309.69C89.67 302.01 97.35 286.61 97.78 283.34C98.04 281.42 94.21 279.44 97.03 277.53C99.27 276.01 100 279.41 100.37 280.84ZM519.19 312.74C521.18 314.77 523.17 316.8 525.16 318.83C521.42 323.13 510.46 332.69 510.03 338.53C510 338.96 514.85 346.07 513.5 354C522.75 349.37 529.57 340.79 535.94 333C536.97 334.54 540.08 338.88 539.34 340.82C536.9 347.29 511.02 369.92 504.62 375.98C501.58 378.86 496.28 386.59 492.11 387.52C489.36 388.12 488.4 382.81 489.15 381C491.38 380.35 522.4 350.55 509.5 357C510.17 355.67 510.83 354.33 511.5 353C510.53 352.82 507.71 352.94 507 352.44C505.51 351.38 507.14 346.41 502.66 347.22C498.04 348.05 501.92 352.27 502.5 354C494.03 353.44 492.87 358.32 489.78 365.28C489.36 366.23 484.79 369.6 482.83 372C478.07 373.86 474.45 370.8 470.87 367.1C472.95 365.7 478.6 361.3 478.63 358.5C478.64 357.33 477.03 357.06 477.27 355.65C477.85 352.23 481.85 354.65 483.11 353C486.03 349.19 488.38 343.34 492 339.56C497.96 342.19 499.19 335.76 500 331.5C505.99 335.87 518.29 318.87 519.19 312.74ZM452.89 794.87C458.75 814.55 412.16 811.9 421 799.1C434.05 807.71 441.99 804.46 452.89 794.87Z" fill="#96a5b2" fill-rule="evenodd" stroke="#96a5b2" stroke-width="0.25" stroke-linejoin="round"/>
</svg>